<?xml version="1.0" encoding="UTF-8" standalone="no"?>
<!-- Created with Inkscape (http://www.inkscape.org/) -->

<svg
   xmlns:dc="http://purl.org/dc/elements/1.1/"
   xmlns:cc="http://creativecommons.org/ns#"
   xmlns:rdf="http://www.w3.org/1999/02/22-rdf-syntax-ns#"
   xmlns:svg="http://www.w3.org/2000/svg"
   xmlns="http://www.w3.org/2000/svg"
   xmlns:sodipodi="http://sodipodi.sourceforge.net/DTD/sodipodi-0.dtd"
   xmlns:inkscape="http://www.inkscape.org/namespaces/inkscape"
   width="297mm"
   height="210mm"
   viewBox="0 0 297 210"
   version="1.1"
   id="svg8"
   inkscape:version="0.92.3 (2405546, 2018-03-11)"
   sodipodi:docname="board.svg">
  <defs
     id="defs2">
    <path
       style="fill:none;fill-opacity:1;fill-rule:evenodd;stroke:none;stroke-width:0.31021085;stroke-opacity:1"
       id="path3755-2"
       sodipodi:type="arc"
       sodipodi:cx="138.64427"
       sodipodi:cy="140.56714"
       sodipodi:rx="130.05905"
       sodipodi:ry="30.201061"
       sodipodi:start="3.1449611"
       sodipodi:end="6.2792932"
       d="M 8.5859582,140.46541 A 130.05905,30.201061 0 0 1 138.61022,110.36608 130.05905,30.201061 0 0 1 268.70234,140.44959 l -130.05807,0.11755 z" />
  </defs>
  <sodipodi:namedview
     id="base"
     pagecolor="#ffffff"
     bordercolor="#666666"
     borderopacity="1.0"
     inkscape:pageopacity="0.0"
     inkscape:pageshadow="2"
     inkscape:zoom="0.64345139"
     inkscape:cx="1462.8719"
     inkscape:cy="56.542453"
     inkscape:document-units="mm"
     inkscape:current-layer="layer1"
     showgrid="false"
     inkscape:window-width="3066"
     inkscape:window-height="1689"
     inkscape:window-x="134"
     inkscape:window-y="55"
     inkscape:window-maximized="1" />
  <metadata
     id="metadata5">
    <rdf:RDF>
      <cc:Work
         rdf:about="">
        <dc:format>image/svg+xml</dc:format>
        <dc:type
           rdf:resource="http://purl.org/dc/dcmitype/StillImage" />
        <dc:title></dc:title>
      </cc:Work>
    </rdf:RDF>
  </metadata>
  <g
     inkscape:label="Layer 1"
     inkscape:groupmode="layer"
     id="layer1"
     transform="translate(0,-87)">
    <g
       aria-label="       ( , @ !   0 1 2 3 4 5 6 7 8 9   ? : . )"
       transform="translate(3.357005,59.623126)"
       style="font-style:normal;font-variant:normal;font-weight:normal;font-stretch:normal;font-size:10.58333302px;line-height:1.25;font-family:Rachana;-inkscape-font-specification:Rachana;text-align:start;letter-spacing:0px;word-spacing:0px;text-anchor:start;fill:#000000;fill-opacity:1;stroke:none;stroke-width:0.26458332"
       id="text3725">
      <path
         d="m 38.65106,191.7627 q -1.173774,3.27563 -0.249708,6.41675 0.921732,3.13318 3.682286,5.25139 l -0.21273,0.68312 q -1.84686,-0.74085 -3.169767,-2.16158 -1.314974,-1.42306 -1.868014,-3.30297 -0.555373,-1.88784 -0.217203,-3.81447 0.33817,-1.92662 1.486383,-3.53134 z"
         style="font-size:16.93333244px"
         id="path5211" />
      <path
         d="m 47.63945,197.35742 q 1.093264,-0.2631 1.427953,1.12759 0.162508,0.67526 -0.0418,1.55784 -0.194331,0.8887 -0.72075,1.45761 l -0.526952,-0.28139 q 0.265745,-0.34459 0.438161,-0.79429 0.182389,-0.4436 0.110808,-0.74103 -0.06965,-0.2894 -0.302769,-0.23329 -0.43409,0.10447 -0.764845,-0.1391 -0.330754,-0.24356 -0.437158,-0.68569 -0.108339,-0.45017 0.129421,-0.80504 0.237759,-0.35487 0.687927,-0.46321 z"
         style="font-size:16.93333244px"
         id="path5213" />
      <path
         d="m 59.902551,192.34472 -0.259784,-1.37297 q -0.102992,-0.54431 -0.55312,-0.92196 -0.451666,-0.38578 -0.906615,-0.29969 -0.454948,0.0861 -0.715572,0.35418 -0.254038,0.25844 -0.363156,0.61568 -0.100994,0.35571 -0.122723,0.73008 -0.0136,0.37283 0.0525,0.72217 0.0661,0.34933 0.206852,0.69296 0.148877,0.34208 0.37592,0.65255 0.493831,0.69757 1.265618,0.55153 0.544314,-0.10299 0.831939,-0.62865 0.294212,-0.53532 0.188146,-1.09588 z m 0.275372,1.27746 q -0.493133,0.95163 -1.419279,1.12687 -0.682422,0.12912 -1.300082,-0.2 -0.611073,-0.33878 -0.989407,-0.91515 -0.379871,-0.58449 -0.505921,-1.25066 -0.126049,-0.66618 0.01556,-1.34092 0.141608,-0.67474 0.588202,-1.20524 0.453181,-0.54015 1.135604,-0.66927 0.901773,-0.17063 1.695756,0.51221 l -0.138346,-0.73116 0.714919,-0.13528 0.690196,3.64772 q 0.0415,0.21935 0.315094,0.42003 0.281714,0.19914 0.525436,0.15303 0.243722,-0.0461 0.391048,-0.33486 0.153912,-0.2984 0.177616,-0.7068 0.03533,-0.7472 -0.09072,-1.41338 -0.126049,-0.66617 -0.455201,-1.29391 -0.330688,-0.63587 -0.822098,-1.09828 -0.483286,-0.46394 -1.167253,-0.65429 -0.685505,-0.19848 -1.514161,-0.0417 -0.828656,0.15679 -1.497237,0.67038 -0.661993,0.50393 -1.024488,1.21205 -0.768023,1.50013 -0.443677,3.21431 0.338181,1.7873 1.59393,2.82035 0.598122,0.4927 1.401975,0.69403 0.811977,0.19979 1.71375,0.0292 1.307977,-0.24749 2.147156,-1.10471 l 0.562552,0.4826 q -1.018563,1.10996 -2.472773,1.38511 -2.185377,0.41351 -3.816156,-0.73371 -1.632316,-1.15534 -2.048893,-3.35697 -0.413503,-2.18538 0.64369,-3.89169 0.49643,-0.80078 1.340666,-1.36444 0.850823,-0.57332 1.93945,-0.7793 1.941655,-0.36739 3.446176,0.60176 1.512645,0.96761 1.876958,2.89302 0.227504,1.20236 -0.181968,2.37378 -0.205285,0.56057 -0.649028,0.97272 -0.443743,0.41214 -0.939311,0.50591 -0.909897,0.17216 -1.439737,-0.49334 z"
         style="font-size:16.93333244px"
         id="path5215" />
      <path
         d="m 71.113708,193.01592 q 0.449747,-0.0673 0.8221,0.18634 0.372352,0.25363 0.438412,0.6952 0.06606,0.44157 -0.202695,0.82455 -0.261801,0.37357 -0.727903,0.4433 -0.457925,0.0685 -0.82577,-0.21087 -0.366622,-0.2712 -0.436352,-0.73731 -0.07095,-0.47427 0.206365,-0.80001 0.276095,-0.33391 0.725843,-0.4012 z m -1.973197,-6.98657 q -0.07874,-0.41459 0.120086,-0.76203 0.205784,-0.35683 0.614645,-0.418 0.417039,-0.0624 0.713736,0.24435 0.296697,0.30675 0.344728,0.85134 l 0.346704,6.28519 -0.621469,0.093 -1.501303,-6.17935 z"
         style="font-size:16.93333244px"
         id="path5217" />
      <path
         d="m 92.844213,189.21416 q 0.01334,-0.54132 8.73e-4,-0.92227 -0.01327,-0.38917 -0.05284,-0.79237 -0.04038,-0.41144 -0.111251,-0.79496 -0.06345,-0.39255 -0.219687,-0.884 -0.157044,-0.49968 -0.374416,-0.85221 -0.209145,-0.35333 -0.571557,-0.57531 -0.35499,-0.23101 -0.766425,-0.19063 -0.411435,0.0404 -0.707973,0.23564 -0.296539,0.19526 -0.476413,0.47877 -0.179874,0.28351 -0.29907,0.67737 -0.110967,0.39306 -0.156913,0.77143 -0.04594,0.37836 -0.06074,0.82014 -0.01026,0.65733 0.04789,1.2498 0.05815,0.59247 0.122405,0.99325 0.07168,0.39175 0.22953,0.89965 0.166081,0.50711 0.37684,0.8769 0.218181,0.36075 0.582208,0.59918 0.363219,0.23021 0.79934,0.18741 0.444349,-0.0436 0.768957,-0.29148 0.3238,-0.25609 0.49156,-0.66303 0.17599,-0.40775 0.273883,-0.84937 0.09789,-0.44162 0.103807,-0.97391 z m 1.40213,-1.45857 q 0.06542,0.66652 0.02724,1.29337 -0.03817,0.62684 -0.217852,1.25095 -0.179678,0.62412 -0.507167,1.09658 -0.717729,1.0674 -2.141293,1.20711 -2.057174,0.2019 -3.062254,-1.74322 -0.551759,-1.0508 -0.690665,-2.46614 -0.225319,-2.2958 0.706815,-3.63348 0.73661,-1.04432 2.160174,-1.18404 2.048945,-0.20109 3.043373,1.72015 0.543531,1.05161 0.681629,2.45872 z"
         style="font-size:16.93333244px"
         id="path5219" />
      <path
         d="m 100.09095,184.17377 q 0.68301,-0.5151 1.37632,-1.33773 l 1.31102,-0.0975 q -0.0482,2.25046 0.11004,4.37779 0.1576,2.11908 0.53634,4.31292 l -1.59137,0.11835 -0.53538,-7.19828 -1.14074,0.71497 z"
         style="font-size:16.93333244px"
         id="path5221" />
      <path
         d="m 111.9372,182.97676 q -1.33757,0.0709 -2.2027,1.40019 l -0.28573,-0.54788 q 0.55025,-0.86545 1.22104,-1.33157 0.67035,-0.47438 1.60335,-0.52386 1.32106,-0.0701 2.30435,0.67266 0.99111,0.73403 1.06379,2.10463 0.0722,1.36234 -0.94913,2.08717 -0.32714,0.23263 -1.20741,0.6519 -0.87201,0.41884 -1.24431,0.73666 -0.37273,0.30956 -0.54118,0.7242 -0.16063,0.40596 -0.12297,1.11603 l 4.26867,-0.22638 0.0425,0.80089 q -1.83779,0.006 -3.25793,0.0817 -1.42014,0.0753 -2.81895,0.24057 l -0.0136,-0.25595 q -0.0997,-1.56789 0.69262,-2.39649 0.40745,-0.4356 1.39068,-0.94314 0.98279,-0.51579 1.24562,-0.71188 0.93925,-0.7122 0.87576,-1.90941 -0.0495,-0.933 -0.58634,-1.37648 -0.53687,-0.44348 -1.47813,-0.39356 z"
         style="font-size:16.93333244px"
         id="path5223" />
      <path
         d="m 126.93426,185.64491 q 0.69471,0.27736 1.12447,0.82721 0.43802,0.5496 0.45843,1.24383 0.0202,0.68597 -0.2781,1.23241 -0.29851,0.53817 -0.80168,0.86729 -1.02191,0.69179 -2.30293,0.72945 -1.87608,0.0551 -2.99204,-1.04528 l 0.31139,-0.66263 q 0.38673,0.49321 0.98154,0.7487 0.60308,0.25524 1.37995,0.2324 0.78515,-0.0231 1.3982,-0.55396 0.61305,-0.53087 0.58875,-1.35734 -0.0245,-0.83473 -0.53524,-1.3243 -0.5107,-0.48956 -1.27932,-0.46697 l -1.22316,0.036 -0.0228,-0.77687 0.85952,-0.0253 q 0.76035,-0.0224 1.23265,-0.27612 0.86318,-0.46378 0.83985,-1.25719 -0.0233,-0.79341 -0.71463,-1.23631 -0.69131,-0.44289 -1.3938,-0.42224 -1.38847,0.0408 -2.03507,1.11862 l -0.19713,-0.51533 q 0.45408,-0.59238 1.1471,-0.93535 0.70128,-0.34322 1.34593,-0.36217 0.64464,-0.0189 1.20299,0.1218 0.56637,0.13224 1.07051,0.39866 0.50414,0.26642 0.84031,0.72803 0.33617,0.46161 0.35342,1.0484 0.017,0.57853 -0.37386,1.06978 -0.38286,0.48275 -0.98521,0.81479 z"
         style="font-size:16.93333244px"
         id="path5225" />
      <path
         d="m 136.01574,187.22253 3.41472,-0.02 -0.0251,-4.2746 z m 6.16799,-0.0362 0.006,1.03351 -1.25675,0.007 q 0.0383,0.89276 0.11033,1.89281 l -1.59574,0.009 -0.0111,-1.88512 -4.54745,0.0267 -0.005,-0.89296 q 0.32032,-0.36569 1.19942,-1.32171 0.88737,-0.95607 1.33074,-1.48785 0.44333,-0.54005 1.13168,-1.59417 0.68835,-1.05413 1.07404,-1.5525 l 1.3725,-0.008 q -0.12725,2.26628 -0.11963,3.56437 0.008,1.28982 0.0295,2.21575 z"
         style="font-size:16.93333244px"
         id="path5227" />
      <path
         d="m 148.82717,188.62213 q 1.02371,1.02708 2.57789,1.05469 0.98377,0.0175 1.63814,-0.5084 0.65437,-0.5259 0.67185,-1.50966 0.0176,-0.99203 -0.65604,-1.70691 -0.67352,-0.72315 -1.69862,-0.74137 -1.0251,-0.0182 -1.79785,0.65442 l -0.66433,-0.3095 0.47809,-4.10147 q 1.46902,0.16669 2.88266,0.19181 1.42191,0.0253 2.92899,-0.0885 l -0.0214,1.20697 -4.91055,-0.0873 -0.40415,2.26694 q 1.0503,-0.46924 2.03407,-0.45176 0.98376,0.0175 1.7631,0.37038 0.78774,0.34478 1.28795,1.04831 0.50848,0.70368 0.49364,1.53864 -0.0147,0.82669 -0.35565,1.3995 -0.33269,0.57295 -0.87607,0.90235 -1.12025,0.683 -2.55043,0.65759 -2.04193,-0.0363 -3.18803,-1.1565 z"
         style="font-size:16.93333244px"
         id="path5229" />
      <path
         d="m 167.39762,188.12336 q 0.0487,-1.15652 -0.51039,-1.83382 -0.55045,-0.68521 -1.51698,-0.72588 -0.96653,-0.0407 -1.80765,0.47839 -0.0656,0.37792 -0.0833,0.79922 -0.0177,0.42131 0.0217,0.86157 0.048,0.43235 0.18585,0.89331 0.13784,0.46095 0.35489,0.80938 0.51254,0.79947 1.47907,0.84015 0.58653,0.0247 1.02348,-0.32933 0.80503,-0.64472 0.85335,-1.79299 z m -0.0336,-2.74062 q 0.73062,0.33695 1.17334,1.0259 0.45132,0.68103 0.41308,1.58973 -0.0379,0.90044 -0.52936,1.56663 -0.97502,1.34099 -2.86677,1.26138 -1.16479,-0.049 -2.02472,-0.65622 -0.85993,-0.6072 -1.26674,-1.55946 -0.40645,-0.96052 -0.35153,-2.26574 0.0553,-1.31349 0.78821,-2.40812 0.73294,-1.09463 1.92241,-1.63214 1.18947,-0.5375 2.65166,-0.47597 0.56174,0.0236 1.20157,0.15815 l -0.17512,0.62157 q -0.43504,-0.0845 -0.81505,-0.10051 -2.03218,-0.0855 -3.13903,1.24165 -0.5579,0.67166 -0.6977,1.63402 0.96947,-0.42263 1.9773,-0.38022 1.00783,0.0424 1.73845,0.37935 z"
         style="font-size:16.93333244px"
         id="path5231" />
      <path
         d="m 181.33957,182.84154 -0.0496,0.74249 q -1.43255,2.21624 -2.24844,3.76104 -0.81534,1.53655 -1.82333,3.97176 l -1.40247,-0.0937 4.0712,-7.60025 -4.33116,-0.28946 0.0584,-0.87448 q 1.37605,0.24112 2.74552,0.33265 1.37772,0.0921 2.97986,0.05 z"
         style="font-size:16.93333244px"
         id="path5233" />
      <path
         d="m 190.45753,191.91332 q 0.72446,0.0676 1.27352,-0.38764 0.55807,-0.46275 0.62418,-1.17074 0.0669,-0.71622 -0.39664,-1.26606 -0.45452,-0.5573 -1.17897,-0.62495 -0.71622,-0.0669 -1.27429,0.39588 -0.5573,0.45452 -0.62418,1.17074 -0.0661,0.70799 0.39664,1.26605 0.46352,0.54984 1.17974,0.61672 z m 0.38403,-4.29063 q 0.70799,0.0661 1.25629,-0.38095 0.54907,-0.45528 0.6144,-1.15504 0.0661,-0.70799 -0.38994,-1.24882 -0.45529,-0.54907 -1.16328,-0.61518 -0.69975,-0.0653 -1.24882,0.38995 -0.5483,0.44705 -0.61441,1.15504 -0.0653,0.69976 0.38172,1.24806 0.45605,0.54083 1.16404,0.60694 z m 3.03897,2.84976 q -0.0569,0.6092 -0.39783,1.05901 -0.34095,0.4498 -0.85203,0.67612 -1.0327,0.47656 -2.24287,0.36356 -1.1937,-0.11146 -2.13678,-0.77251 -0.46034,-0.31702 -0.71213,-0.82217 -0.25178,-0.50516 -0.1949,-1.11436 0.13453,-1.44067 1.86205,-1.97692 -1.3985,-0.85304 -1.26551,-2.27725 0.0538,-0.57627 0.36029,-1.01269 0.31549,-0.44388 0.78617,-0.68227 0.47146,-0.24663 1.01217,-0.34561 0.54894,-0.0982 1.11698,-0.0452 0.56804,0.053 1.08931,0.25119 0.5295,0.19891 0.94715,0.52856 0.41841,0.32141 0.64626,0.81603 0.22863,0.48638 0.17482,1.06265 -0.13452,1.44067 -1.657,2.00437 1.59684,0.86326 1.46385,2.28747 z"
         style="font-size:16.93333244px"
         id="path5235" />
      <path
         d="m 206.05181,189.84407 q 0.0585,-0.26765 0.111,-0.68606 0.0524,-0.4184 0.008,-0.99067 -0.0357,-0.57945 -0.2047,-1.15894 -0.16798,-0.5877 -0.57601,-0.98883 -0.39983,-0.4001 -0.99052,-0.47415 -0.58248,-0.073 -1.04614,0.23551 -0.87088,0.5658 -1.01281,1.69795 -0.14192,1.13216 0.34701,1.88508 0.48995,0.74472 1.46623,0.8671 0.97627,0.12238 1.89842,-0.38699 z m 0.33881,-4.03234 q 0.81405,0.68535 1.147,1.68538 0.33398,0.99182 0.17047,2.29626 -0.16249,1.29623 -0.9997,2.32457 -0.83618,1.02012 -2.08134,1.44734 -1.24517,0.42722 -2.70548,0.24416 -0.45943,-0.0576 -0.95985,-0.18698 l 0.2084,-0.59885 q 0.26661,0.0668 0.61939,0.11097 1.52595,0.19129 2.69428,-0.48721 1.17757,-0.68568 1.46011,-2.14186 -1.08312,0.39753 -2.27271,0.24841 -1.32905,-0.1666 -2.17483,-0.99759 -0.88987,-0.87818 -0.72121,-2.22364 0.11107,-0.88604 0.65688,-1.51758 1.10086,-1.27027 2.99599,-1.03271 1.14856,0.14398 1.9626,0.82933 z"
         style="font-size:16.93333244px"
         id="path5237" />
      <path
         d="m 225.63067,195.56227 q 0.46256,0.0903 0.74974,0.47487 0.29529,0.38618 0.2066,0.84063 -0.0871,0.44633 -0.50278,0.6769 -0.41567,0.23057 -0.87012,0.14187 -0.45444,-0.0887 -0.7529,-0.45864 -0.29847,-0.36995 -0.21135,-0.81628 0.0871,-0.44633 0.50594,-0.69313 0.42042,-0.25491 0.87487,-0.16622 z m 3.34103,-7.19088 q 0.43979,0.4228 0.65491,1.00394 0.21512,0.58113 0.11851,1.07616 -0.0966,0.49502 -0.29951,0.80081 -0.1932,0.29926 -0.45982,0.49995 -0.26504,0.19258 -0.595,0.37248 -0.32185,0.18149 -0.66012,0.31765 -0.32857,0.12963 -0.66011,0.31765 -0.32185,0.18148 -0.58689,0.37406 -0.58827,0.42434 -0.7324,1.16281 -0.0491,0.25157 -0.0267,0.52551 l -0.84438,0.0964 q -0.0603,-0.42457 0.022,-0.84655 0.0839,-0.4301 0.38997,-0.87583 0.31414,-0.44414 0.69695,-0.76537 0.3844,-0.32934 0.75752,-0.64403 0.91428,-0.75665 1.07583,-1.58439 0.16156,-0.82774 -0.25347,-1.50686 -0.40692,-0.67754 -1.08859,-0.81058 -0.67355,-0.13146 -1.15077,0.11236 -0.46753,0.2373 -0.5784,0.80536 -0.0396,0.20288 0.1405,0.575 0.18822,0.3737 0.13595,0.6415 -0.0523,0.2678 -0.38401,0.41366 -0.32204,0.13933 -0.73591,0.0585 -0.40575,-0.0792 -0.63613,-0.4527 -0.23037,-0.37351 -0.13217,-0.87665 0.0982,-0.50313 0.36067,-0.89839 0.27059,-0.39367 0.63599,-0.62563 0.36539,-0.23196 0.81232,-0.36376 0.8632,-0.23589 1.66659,-0.0791 0.8034,0.1568 1.36096,0.45096 0.55755,0.29415 0.99575,0.72507 z"
         style="font-size:16.93333244px"
         id="path5239" />
      <path
         d="m 235.62087,197.47918 q 0.4422,0.10611 0.69048,0.4888 0.25022,0.37466 0.14797,0.80078 -0.10226,0.42611 -0.48688,0.68244 -0.38269,0.24829 -0.84097,0.13832 -0.45828,-0.10997 -0.69659,-0.49877 -0.23832,-0.3888 -0.12835,-0.84708 0.1119,-0.46632 0.49105,-0.66444 0.38109,-0.20616 0.82329,-0.10005 z m 1.13056,-4.71143 q 0.4422,0.10611 0.69049,0.4888 0.24828,0.38269 0.1441,0.81685 -0.10225,0.42612 -0.49491,0.68052 -0.38462,0.25632 -0.8429,0.14635 -0.45024,-0.10804 -0.68663,-0.50488 -0.23639,-0.39684 -0.12642,-0.85512 0.1119,-0.46632 0.49298,-0.67248 0.38109,-0.20615 0.82329,-0.10004 z"
         style="font-size:16.93333244px"
         id="path5241" />
      <path
         d="m 243.5412,199.69914 q 0.42902,0.12364 0.66438,0.50124 0.24331,0.3799 0.12196,0.80097 -0.12135,0.42108 -0.5205,0.64163 -0.38892,0.2149 -0.84177,0.0844 -0.44492,-0.12823 -0.67005,-0.51148 -0.22513,-0.38326 -0.0946,-0.83612 0.13051,-0.45286 0.51592,-0.62574 0.39564,-0.17854 0.82467,-0.0549 z"
         style="font-size:16.93333244px"
         id="path5243" />
      <path
         d="m 248.725,206.11144 q 2.88846,-1.94017 4.00567,-5.00909 1.12003,-3.07669 0.15486,-6.41973 l 0.57658,-0.42364 q 1.04205,1.68161 1.25822,3.62571 0.21901,1.93633 -0.45415,3.78545 -0.67032,1.84135 -2.07724,3.16818 -1.40198,1.33743 -3.29466,1.96828 z"
         style="font-size:16.93333244px"
         id="path5245" />
    </g>
    <g
       aria-label="             N  O  P  Q  R  S  T  U  V  W  X  Y  Z"
       transform="translate(0.41119397,-5.3455216)"
       style="font-style:normal;font-weight:normal;font-size:10.58333302px;line-height:1.25;font-family:sans-serif;text-align:start;letter-spacing:0px;word-spacing:0px;text-anchor:start;fill:#000000;fill-opacity:1;stroke:none;stroke-width:0.26458332"
       id="text3749">
      <path
         d="m 39.8823,233.19694 2.391132,9.71496 -1.480221,0.35138 -6.743816,-6.78666 1.884832,7.94009 -0.909048,0.21579 -2.230239,-9.75315 1.319327,-0.31318 q 2.911068,3.77891 6.825075,6.69939 l -1.869554,-7.87574 z"
         style="font-style:normal;font-variant:normal;font-weight:normal;font-stretch:normal;font-size:16.93333244px;font-family:Rachana;-inkscape-font-specification:Rachana;text-align:start;text-anchor:start;stroke:none;stroke-width:0.26458332"
         id="path5248" />
      <path
         d="m 59.522942,237.04974 q 0.111265,-0.61519 0.09503,-1.19143 -0.01766,-0.58438 -0.115357,-1.14646 -0.0977,-0.56208 -0.298818,-1.13976 -0.194387,-0.58723 -0.531506,-1.17483 -0.328972,-0.58902 -0.739773,-1.02115 -0.402654,-0.43354 -0.961517,-0.6553 -0.552134,-0.23133 -1.12236,-0.13221 -0.562079,0.0977 -0.966569,0.37781 -0.39776,0.27056 -0.639695,0.66508 -0.241935,0.39453 -0.386834,0.8645 -0.144899,0.46997 -0.179301,0.99627 -0.07978,1.03772 0.05049,1.78716 0.128851,0.74129 0.321823,1.32038 0.199701,0.56953 0.525842,1.14225 0.334287,0.57131 0.735525,0.99671 0.407969,0.41583 0.958686,0.63901 0.557447,0.21362 1.168404,0.10742 0.619102,-0.10761 1.067871,-0.47095 0.448769,-0.36334 0.681858,-0.85704 0.23309,-0.49369 0.33621,-1.10746 z m -0.251621,-6.08257 q 0.663662,0.63154 1.107361,1.49435 0.451846,0.86138 0.609016,1.7656 0.155755,0.89607 0.105393,1.66851 -0.05036,0.77245 -0.305076,1.47971 -0.247984,0.69769 -0.677646,1.26752 -0.922727,1.20941 -2.600821,1.5011 -2.435679,0.42337 -4.029987,-1.50666 -0.944474,-1.13662 -1.231912,-2.79028 -0.287438,-1.65365 0.213843,-3.06676 0.539897,-1.52891 1.777088,-2.28106 0.668713,-0.40157 1.597366,-0.56299 0.9368,-0.16283 1.859038,0.12165 0.920822,0.27634 1.576337,0.90931 z"
         style="font-style:normal;font-variant:normal;font-weight:normal;font-stretch:normal;font-size:16.93333244px;font-family:Rachana;-inkscape-font-specification:Rachana;text-align:start;text-anchor:start;stroke:none;stroke-width:0.26458332"
         id="path5250" />
      <path
         d="m 74.634594,232.20122 q 0.976145,-0.12344 1.562877,-0.75602 0.593897,-0.64182 0.474606,-1.58516 -0.120329,-0.95153 -0.833805,-1.45303 -0.705273,-0.50253 -1.648607,-0.38324 l -1.566754,0.19813 0.526958,4.16707 z m -2.282202,-4.53683 2.246462,-0.35909 q 1.263247,-0.15975 2.301918,0.40897 0.509058,0.26898 0.855382,0.7669 0.346325,0.49792 0.431385,1.17056 0.08402,0.66444 -0.151022,1.24421 -0.236081,0.57157 -0.696003,0.95476 -0.918806,0.77458 -2.223067,0.93951 l -1.886667,0.23859 0.568451,4.49519 -1.427305,0.18049 q -0.200791,-2.70819 -0.511987,-5.16906 -0.311195,-2.46087 -0.747318,-4.78926 0.657365,-0.008 1.239771,-0.0818 z"
         style="font-style:normal;font-variant:normal;font-weight:normal;font-stretch:normal;font-size:16.93333244px;font-family:Rachana;-inkscape-font-specification:Rachana;text-align:start;text-anchor:start;stroke:none;stroke-width:0.26458332"
         id="path5252" />
      <path
         d="m 95.93374,233.67922 q 0.798249,-1.32241 0.612537,-3.46411 -0.07786,-0.89787 -0.35236,-1.67079 -0.274504,-0.77293 -0.5541,-1.22174 -0.279596,-0.44881 -0.624756,-0.79235 -0.753697,-0.74797 -1.791599,-0.65797 -0.634274,0.055 -1.119988,0.38759 -0.477476,0.33187 -0.751923,0.80383 -0.274448,0.47196 -0.428952,1.0829 -0.271729,1.07757 -0.163873,2.32141 0.07786,0.89786 0.353788,1.68726 0.275218,0.78117 0.554814,1.22998 0.279597,0.44881 0.625471,0.80059 0.755126,0.76444 1.793028,0.67445 0.757833,-0.0657 1.314492,-0.53725 -0.89221,-1.10113 -1.605573,-1.28825 -0.331256,-0.0875 -0.710172,-0.0546 l 0.186878,-1.1947 q 0.928628,0.0855 1.56562,0.63608 0.521336,0.46104 1.096668,1.25768 z m 0.617948,0.80954 q 0.826358,0.91595 1.970297,0.70887 l -0.149644,1.24127 q -0.994906,0.0116 -1.771886,-0.71778 -0.324401,-0.29554 -0.687799,-0.75369 -0.805921,0.46825 -1.7285,0.54825 -0.92258,0.08 -1.67175,-0.13721 -0.749883,-0.22545 -1.311691,-0.67469 -0.561808,-0.44924 -0.988915,-1.06785 -0.845977,-1.23792 -0.990976,-2.9101 -0.177855,-2.05109 0.820659,-3.64814 0.481521,-0.76379 1.301774,-1.25818 0.819538,-0.50262 1.76683,-0.58476 0.947291,-0.0821 1.696461,0.13507 0.748455,0.20897 1.301311,0.65069 0.561094,0.441 0.988201,1.05961 0.834169,1.19745 0.963453,2.6884 0.268569,3.09724 -1.507825,4.72024 z"
         style="font-style:normal;font-variant:normal;font-weight:normal;font-stretch:normal;font-size:16.93333244px;font-family:Rachana;-inkscape-font-specification:Rachana;text-align:start;text-anchor:start;stroke:none;stroke-width:0.26458332"
         id="path5254" />
      <path
         d="m 111.85999,228.8747 q 0.97438,-0.0497 1.61505,-0.637 0.6485,-0.59602 0.60052,-1.53738 -0.048,-0.94135 -0.71983,-1.45352 -0.67229,-0.52043 -1.61364,-0.47246 l -1.66802,0.085 0.20873,4.09573 z m -2.03959,-4.60679 2.36696,-0.17858 q 1.27165,-0.0648 2.25283,0.50611 1.05844,0.62494 1.12661,1.96265 0.0551,1.08174 -0.62413,1.8863 -0.67969,0.7963 -1.7498,0.91707 0.1439,0.22448 0.61495,1.02009 0.47931,0.79519 0.77496,1.23546 0.29522,0.43202 0.91449,1.2118 0.6271,0.7711 0.85863,1.09046 l -1.64325,0.0837 -2.78597,-4.46939 -1.61021,0.0821 0.2344,4.59943 -1.43681,0.0732 q 0.006,-2.48399 -0.12248,-5.00253 -0.12835,-2.51854 -0.38798,-5.01384 0.51491,0.0317 1.2168,-0.004 z"
         style="font-style:normal;font-variant:normal;font-weight:normal;font-stretch:normal;font-size:16.93333244px;font-family:Rachana;-inkscape-font-specification:Rachana;text-align:start;text-anchor:start;stroke:none;stroke-width:0.26458332"
         id="path5256" />
      <path
         d="m 132.78253,225.24647 q -0.97534,-1.23786 -2.58733,-1.20621 -0.88453,0.0174 -1.51197,0.4928 -0.61934,0.46701 -0.60262,1.31847 0.01,0.496 0.38791,0.80282 0.38644,0.30667 0.77773,0.43957 0.39129,0.13291 0.58272,0.19531 0.19953,0.054 0.49876,0.13079 0.29906,0.0686 0.68159,0.17682 0.39081,0.1081 0.84143,0.31427 0.45872,0.19774 0.87044,0.52872 0.81501,0.65385 0.84229,2.04264 0.0271,1.38053 -0.93115,2.27595 -0.95842,0.88715 -2.41335,0.91572 -2.17412,0.0427 -3.47916,-1.56084 l 0.48949,-0.76216 q 0.47868,0.79277 1.21474,1.21662 0.73607,0.42385 1.62887,0.40631 0.90106,-0.0177 1.51018,-0.58373 0.61739,-0.5662 0.60035,-1.4342 -0.0167,-0.85146 -0.5706,-1.26235 -0.52843,-0.3783 -1.4,-0.54312 -0.87173,-0.17309 -1.26253,-0.28119 -0.38254,-0.10827 -0.80836,-0.31492 -0.42582,-0.20666 -0.70397,-0.4741 -0.62407,-0.61625 -0.6442,-1.64131 -0.0276,-1.40533 0.9318,-2.24288 0.96766,-0.83772 2.40605,-0.86596 1.84346,-0.0362 3.1271,1.31965 z"
         style="font-style:normal;font-variant:normal;font-weight:normal;font-stretch:normal;font-size:16.93333244px;font-family:Rachana;-inkscape-font-specification:Rachana;text-align:start;text-anchor:start;stroke:none;stroke-width:0.26458332"
         id="path5258" />
      <path
         d="m 151.70415,223.44894 -0.009,0.82678 -3.01774,-0.0321 q -0.0997,2.38033 -0.12398,4.66223 -0.0243,2.2819 0.0261,4.54806 l -1.43859,-0.0153 q 0.15672,-2.29704 0.18169,-4.64508 0.025,-2.34804 -0.0838,-4.56521 l -3.00946,-0.032 0.009,-0.82677 q 1.79261,0.15962 3.719,0.1801 1.92639,0.0205 3.74679,-0.10073 z"
         style="font-style:normal;font-variant:normal;font-weight:normal;font-stretch:normal;font-size:16.93333244px;font-family:Rachana;-inkscape-font-specification:Rachana;text-align:start;text-anchor:start;stroke:none;stroke-width:0.26458332"
         id="path5260" />
      <path
         d="m 162.48484,230.60717 0.28074,-4.49835 q 0.0495,-1.17305 0.0146,-2.30827 l 1.4374,0.0606 -0.28603,6.78218 q -0.0474,1.12348 0.61692,1.85492 0.67257,0.73179 1.77953,0.77847 1.10695,0.0467 1.83048,-0.62622 0.73214,-0.68083 0.77917,-1.79605 l 0.28602,-6.78218 0.83435,0.0352 -0.27383,6.49306 q -0.0693,1.64391 -1.12001,2.6175 -1.05067,0.97359 -2.67807,0.90496 -1.51174,-0.0638 -2.51499,-0.99983 -1.05176,-0.96295 -0.98627,-2.51599 z"
         style="font-style:normal;font-variant:normal;font-weight:normal;font-stretch:normal;font-size:16.93333244px;font-family:Rachana;-inkscape-font-specification:Rachana;text-align:start;text-anchor:start;stroke:none;stroke-width:0.26458332"
         id="path5262" />
      <path
         d="m 188.24289,225.31281 0.84091,0.0643 -4.01046,9.72727 -1.66533,-0.12725 -2.60963,-10.23313 1.65708,0.12662 q 0.5983,4.32456 2.2487,8.77098 z"
         style="font-style:normal;font-variant:normal;font-weight:normal;font-stretch:normal;font-size:16.93333244px;font-family:Rachana;-inkscape-font-specification:Rachana;text-align:start;text-anchor:start;stroke:none;stroke-width:0.26458332"
         id="path5264" />
      <path
         d="m 211.35255,227.78057 0.83737,0.1003 -3.61981,9.6425 -1.66654,-0.19961 -1.13084,-8.49608 -2.99857,8.00148 -1.67475,-0.2006 -1.35516,-10.23837 1.65832,0.19862 q 0.007,2.51567 0.17264,4.0511 0.16584,1.53544 0.89783,4.67092 l 3.07536,-8.22545 1.65833,0.19862 q -0.001,2.51469 0.16443,4.05012 0.16584,1.53544 0.89782,4.67092 z"
         style="font-style:normal;font-variant:normal;font-weight:normal;font-stretch:normal;font-size:16.93333244px;font-family:Rachana;-inkscape-font-specification:Rachana;text-align:start;text-anchor:start;stroke:none;stroke-width:0.26458332"
         id="path5266" />
      <path
         d="m 228.97798,240.69729 -1.77671,-0.30368 -1.65528,-4.35118 -3.28364,3.50698 -0.9943,-0.16995 3.94991,-4.21514 -2.18421,-5.62432 1.68706,0.28837 q 0.74238,2.57623 1.38055,4.3881 l 3.41167,-3.56899 0.9943,0.16996 -4.07934,4.28529 q 0.82318,2.10352 2.12673,4.73373 z"
         style="font-style:normal;font-variant:normal;font-weight:normal;font-stretch:normal;font-size:16.93333244px;font-family:Rachana;-inkscape-font-specification:Rachana;text-align:start;text-anchor:start;stroke:none;stroke-width:0.26458332"
         id="path5268" />
      <path
         d="m 243.3723,243.72047 -1.48329,-0.33817 0.90977,-3.99038 -1.79136,-6.46342 1.64452,0.37494 q 0.30974,2.06351 0.73765,3.34832 0.12434,0.38453 0.30724,0.88417 0.18474,0.49158 0.25971,0.72068 l 3.09691,-3.94967 0.89481,0.20401 -3.727,5.18832 q -0.15004,0.21172 -0.35037,1.09041 -0.20034,0.87869 -0.49859,2.93079 z"
         style="font-style:normal;font-variant:normal;font-weight:normal;font-stretch:normal;font-size:16.93333244px;font-family:Rachana;-inkscape-font-specification:Rachana;text-align:start;text-anchor:start;stroke:none;stroke-width:0.26458332"
         id="path5270" />
      <path
         d="m 262.40144,248.12725 -0.24031,0.78248 q -1.50846,-0.52381 -3.19199,-1.04084 -1.68353,-0.51703 -3.24968,-0.93746 l 0.16263,-0.52957 7.41816,-6.77768 -4.70282,-1.44429 0.24274,-0.79039 q 1.56684,0.55904 3.09229,1.02752 1.52545,0.46848 3.1755,0.89739 l -0.16021,0.52165 -7.39139,6.80321 z"
         style="font-style:normal;font-variant:normal;font-weight:normal;font-stretch:normal;font-size:16.93333244px;font-family:Rachana;-inkscape-font-specification:Rachana;text-align:start;text-anchor:start;stroke:none;stroke-width:0.26458332"
         id="path5272" />
    </g>
    <path
       style="fill:none;fill-opacity:1;fill-rule:evenodd;stroke:none;stroke-width:0.31021085;stroke-opacity:1"
       d="M 11.053121,220.23705 A 130.05905,30.201061 0 0 1 141.07738,190.13772 130.05905,30.201061 0 0 1 271.1695,220.22123 l -130.05807,0.11755 z"
       id="path3755" />
    <path
       style="fill:none;fill-opacity:1;fill-rule:evenodd;stroke:none;stroke-width:0.40397677;stroke-opacity:1"
       d="m -15.500668,275.79823 a 156.61299,42.533772 0 0 1 156.571098,-42.3905 156.61299,42.533772 0 0 1 156.65281,42.36822 l -156.61181,0.16555 z"
       id="path4582" />
    <g
       aria-label="       A  B  C  D  E  F  G  H  I  J  K  L  M"
       transform="translate(9.9276446,93.632727)"
       style="font-style:normal;font-variant:normal;font-weight:normal;font-stretch:normal;font-size:10.58333302px;line-height:1.25;font-family:Rachana;-inkscape-font-specification:Rachana;text-align:start;letter-spacing:0px;word-spacing:0px;text-anchor:start;fill:#000000;fill-opacity:1;stroke:none;stroke-width:0.26458332"
       id="text3725-1">
      <path
         d="m 36.278986,117.21084 2.891411,-0.80495 -2.620353,-3.49318 z m 7.314408,2.65842 -1.608994,0.44794 -2.295319,-3.18886 q -0.843915,0.17486 -1.767892,0.43209 -0.916012,0.25501 -1.68109,0.52809 l -0.173931,3.87628 -0.812462,0.22619 0.620211,-10.56627 1.226659,-0.34149 q 2.259287,3.64519 4.835113,6.67013 0.269277,0.31984 0.840596,0.98472 0.577068,0.6547 0.817109,0.93118 z"
         style="font-size:16.93333244px;stroke-width:0.26458332"
         id="path5277" />
      <path
         d="m 56.751149,116.47246 q 0.966786,-0.18282 1.47208,-0.89265 0.505294,-0.70983 0.325548,-1.66036 -0.181282,-0.95866 -0.878819,-1.39896 -0.69095,-0.44997 -1.641487,-0.27022 l -1.616726,0.30572 0.795797,4.20836 z m 0.859137,-7.07098 q -0.175136,-0.92617 -0.881241,-1.32277 -0.697981,-0.39814 -1.534778,-0.23991 l -1.616726,0.30572 0.712837,3.76966 q 0.497767,0.007 0.985221,-0.0853 0.487455,-0.0922 0.92903,-0.29349 0.440038,-0.20943 0.793573,-0.52031 0.785685,-0.69553 0.612084,-1.61357 z m -4.364249,-1.80855 2.337154,-0.50085 q 1.113023,-0.21047 2.129593,0.27047 0.488964,0.2273 0.842654,0.67372 0.352153,0.43829 0.479665,1.11261 0.127512,0.67431 -0.260528,1.33672 -0.379914,0.66088 -1.092896,1.07339 0.927023,0.0519 1.558681,0.5888 0.638246,0.52725 0.81031,1.43716 0.248878,1.31613 -0.542535,2.24836 -0.78329,0.93069 -2.107543,1.18111 l -2.266223,0.38646 q -0.682437,0.12905 -1.21908,0.2726 -0.479502,-2.98071 -0.915808,-5.288 -0.436305,-2.30728 -0.958462,-4.62358 0.611948,-0.0568 1.205018,-0.16897 z"
         style="font-size:16.93333244px;stroke-width:0.26458332"
         id="path5279" />
      <path
         d="m 75.565884,113.30461 q 1.557293,-0.20679 2.156996,-1.84616 l 0.580382,0.79037 q -1.006318,1.8435 -2.875069,2.09166 -2.409706,0.31999 -3.840171,-1.65867 -0.837533,-1.15658 -1.053038,-2.77944 -0.216593,-1.63106 0.27918,-3.04811 0.546105,-1.5405 1.767105,-2.26982 0.665697,-0.38867 1.526307,-0.50295 0.868805,-0.11537 1.693098,0.2506 0.823205,0.35777 1.479019,1.08808 l -0.207993,0.69488 q -0.500729,-0.56741 -1.145859,-0.84039 -0.64513,-0.27299 -1.300832,-0.18592 -0.655702,0.0871 -1.145435,0.41902 -0.490821,0.32374 -0.786664,0.79675 -0.295843,0.473 -0.467719,1.063 -0.315322,1.14286 -0.150972,2.3805 0.255776,1.92613 1.418472,2.95612 0.851948,0.76266 2.073193,0.60048 z"
         style="font-size:16.93333244px;stroke-width:0.26458332"
         id="path5281" />
      <path
         d="m 94.693627,107.10569 q -0.05332,-0.60122 -0.212977,-1.18471 -0.159657,-0.58349 -0.457864,-1.13809 -0.28997,-0.55533 -0.675321,-0.96939 -0.86933,-0.91068 -2.162367,-0.79601 l -1.424811,0.12637 0.774243,8.73005 1.424812,-0.12636 q 1.844842,-0.16361 2.49094,-2.23798 0.355829,-1.13555 0.243345,-2.40388 z m -5.049626,-4.52427 1.943874,-0.2637 q 2.363704,-0.20963 3.700595,1.85488 0.778862,1.20093 0.920563,2.7987 0.222047,2.50371 -1.137906,4.11014 -0.961433,1.13946 -2.583905,1.28335 l -1.92627,0.0878 q -0.584749,0.0519 -1.401035,0.20726 -0.103144,-3.12851 -0.290862,-5.24514 -0.188448,-2.12486 -0.600249,-4.80266 0.773974,0.0227 1.375195,-0.0307 z"
         style="font-size:16.93333244px;stroke-width:0.26458332"
         id="path5283" />
      <path
         d="m 113.33215,110.30364 0.0345,0.65228 q -1.95251,0.0288 -3.26532,0.0982 -1.31282,0.0695 -2.80335,0.22281 -0.005,-2.74864 -0.13392,-5.19262 -0.12972,-2.45224 -0.39674,-4.83925 1.30285,0.0553 2.723,-0.0199 1.42015,-0.0751 3.23007,-0.29506 l 0.0349,0.66054 -4.51641,0.23891 0.18257,3.45129 q 0.74616,0.0185 1.5966,-0.0265 0.85044,-0.045 2.002,-0.1887 l 0.0415,0.78439 -3.59992,0.19043 0.23847,4.50815 z"
         style="font-size:16.93333244px;stroke-width:0.26458332"
         id="path5285" />
      <path
         d="m 129.65524,100.40286 0.0146,0.66129 -4.52162,0.0997 0.0762,3.45528 q 0.74523,0.0415 1.59665,0.0227 0.85142,-0.0188 2.00687,-0.12695 l 0.0173,0.78529 -3.60407,0.0795 0.11409,5.17466 -1.43833,0.0317 q 0.0586,-3.34247 0.0103,-5.53302 -0.0485,-2.19881 -0.23194,-4.51871 1.30053,0.0954 2.72232,0.064 1.42179,-0.0314 3.23762,-0.19543 z"
         style="font-size:16.93333244px;stroke-width:0.26458332"
         id="path5287" />
      <path
         d="m 147.68521,102.32761 q -0.70221,-1.03957 -1.97547,-1.05045 -0.8764,-0.007 -1.59048,0.34195 -0.71401,0.34118 -1.15737,0.94099 -0.92827,1.22408 -0.94332,2.98515 -0.0139,1.62051 0.7856,2.89243 0.39156,0.62349 1.04148,1.00939 0.64991,0.38591 1.35269,0.39192 0.71104,0.006 1.20874,-0.17985 l 0.0322,-3.76191 -2.07525,-0.0177 0.006,-0.66144 q 0.82588,0.11455 1.63613,0.12148 0.81026,0.007 1.88601,-0.0914 -0.10741,0.95823 -0.11646,2.01652 -0.009,1.05003 0.071,2.3406 -1.15772,0.98233 -3.19163,0.96495 -2.36463,-0.0202 -3.52821,-2.22131 -0.67543,-1.27086 -0.66236,-2.80043 0.0131,-1.53783 0.55239,-2.71562 0.53926,-1.17779 1.6203,-1.89619 1.08939,-0.72659 2.54455,-0.71415 0.84333,0.007 1.58433,0.37736 0.74927,0.37021 1.22288,1.06882 z"
         style="font-size:16.93333244px;stroke-width:0.26458332"
         id="path5289" />
      <path
         d="m 165.78605,110.99943 -1.43745,-0.0593 0.19489,-4.72541 -4.40322,-0.1816 -0.19489,4.72541 -1.43745,-0.0593 q 0.29341,-2.90079 0.39256,-5.3048 0.0992,-2.40401 0.0187,-4.66648 l 1.43745,0.0593 -0.18603,4.51061 q 0.89638,0.13628 1.97034,0.18057 1.08222,0.0446 2.43288,0.001 l 0.18604,-4.51062 1.43745,0.0593 q -0.29308,2.89253 -0.39223,5.29654 -0.0992,2.40401 -0.019,4.67474 z"
         style="font-size:16.93333244px;stroke-width:0.26458332"
         id="path5291" />
      <path
         d="m 177.89393,111.76396 -1.36911,-0.0968 q 0.37598,-2.97399 0.54154,-5.31633 0.16555,-2.34233 0.16382,-4.66333 l 1.36911,0.0968 q -0.36231,3.13244 -0.52612,5.45003 -0.16322,2.30935 -0.17924,4.52963 z"
         style="font-size:16.93333244px;stroke-width:0.26458332"
         id="path5293" />
      <path
         d="m 193.18769,105.8098 -0.28576,4.69118 q -0.11587,1.16005 -0.94427,1.88332 -0.82016,0.72408 -1.95553,0.61068 -1.47268,-0.1471 -2.08824,-1.5547 l 0.47714,-0.28472 q 0.15062,0.48868 0.51923,0.7914 0.36944,0.29449 0.9618,0.35366 0.59237,0.0592 1.04727,-0.41889 0.45491,-0.47805 0.52887,-1.2185 l 0.76918,-7.70075 q 0.43194,0.0847 0.69521,0.11099 0.26327,0.0263 0.73634,0.032 -0.324,1.33037 -0.46124,2.70433 z"
         style="font-size:16.93333244px;stroke-width:0.26458332"
         id="path5295" />
      <path
         d="m 205.32944,109.7299 q 3.6677,-2.84646 5.42063,-4.43563 l 0.95785,0.13549 -3.71641,3.13185 q 0.87487,3.55582 2.62746,6.80991 l -1.70284,-0.24086 -2.12646,-5.56998 -1.62582,1.33993 -0.513,3.62672 -1.4245,-0.20149 q 0.52959,-2.62232 0.87468,-5.06196 0.34625,-2.44784 0.52537,-4.83581 l 1.42449,0.2015 z"
         style="font-size:16.93333244px;stroke-width:0.26458332"
         id="path5297" />
      <path
         d="m 226.64738,117.63779 -0.12725,0.64068 q -1.58475,-0.38218 -2.8661,-0.63666 -1.27324,-0.25288 -2.79456,-0.48758 0.66139,-2.56615 1.15264,-5.03965 0.49286,-2.48161 0.79304,-4.75703 l 1.41111,0.28026 -1.81844,9.156 z"
         style="font-size:16.93333244px;stroke-width:0.26458332"
         id="path5299" />
      <path
         d="m 246.88658,113.23773 1.63368,0.48183 q -0.87627,2.47421 -1.54522,4.74233 -0.66895,2.26812 -1.28494,4.85358 l -1.38783,-0.40933 2.5092,-8.44923 -5.08662,7.68907 -1.1182,-0.3298 -0.27999,-9.28048 -2.49568,8.46184 -0.89615,-0.2643 2.90947,-9.57252 1.91918,0.56604 q -0.0238,0.66535 -0.0739,1.47814 -0.1493,2.46449 1.7e-4,4.12057 0.0527,0.61036 0.14358,1.41299 0.0988,0.80496 0.15894,1.47785 z"
         style="font-size:16.93333244px;stroke-width:0.26458332"
         id="path5301" />
    </g>
    <g
       id="g4839"
       transform="matrix(0.13850205,0,0,0.13850205,11.796027,126.92917)">
      <g
         id="g4776">
        <path
           id="path4760"
           d="m 218.433,165.504 c 3.78,-3.78 5.862,-8.806 5.862,-14.151 0,-5.346 -2.082,-10.372 -5.861,-14.151 -3.78,-3.78 -8.806,-5.862 -14.151,-5.862 -3.815,0 -7.468,1.06 -10.62,3.042 -7.724,-4.83 -18.052,-3.889 -24.763,2.82 -7.802,7.803 -7.802,20.499 0.001,28.302 l 24.767,24.767 z m -42.462,-21.231 c 1.952,-1.952 4.517,-2.928 7.081,-2.928 2.563,0 5.128,0.976 7.08,2.928 l 3.535,3.536 3.536,-3.536 c 1.891,-1.891 4.404,-2.932 7.079,-2.932 2.675,0 5.188,1.042 7.08,2.933 1.891,1.891 2.933,4.405 2.933,7.08 0,2.674 -1.042,5.188 -2.933,7.08 l -17.695,17.695 -17.695,-17.695 c -3.904,-3.905 -3.904,-10.257 -0.001,-14.161 z"
           inkscape:connector-curvature="0" />
        <path
           id="path4762"
           d="m 149.517,197.175 c 0,45.757 37.227,82.983 82.983,82.983 45.756,0 82.983,-37.226 82.983,-82.983 V 114.192 H 149.517 Z m 82.983,9.836 c 7.805,0 14.154,6.35 14.154,14.154 0,7.804 -6.35,14.154 -14.154,14.154 -7.804,0 -14.154,-6.35 -14.154,-14.154 0,-7.805 6.35,-14.154 14.154,-14.154 z m 72.984,-9.836 c 0,38.56 -30.064,70.21 -67.979,72.792 v -25.173 c 10.925,-2.311 19.15,-12.027 19.15,-23.629 0,-11.603 -8.225,-21.319 -19.15,-23.63 v -73.343 h 67.979 z M 159.517,124.192 h 67.987 v 73.342 c -10.929,2.308 -19.158,12.026 -19.158,23.632 0,11.606 8.229,21.323 19.158,23.631 v 25.172 c -37.919,-2.579 -67.987,-34.231 -67.987,-72.793 z"
           inkscape:connector-curvature="0" />
        <path
           id="path4764"
           d="m 366.63,296.058 v -51.263 c 10.927,-2.31 19.153,-12.026 19.153,-23.63 0,-11.605 -8.227,-21.321 -19.153,-23.631 v -45.249 h 10.032 v -5 c 0,-23.253 -18.819,-42.186 -42.025,-42.386 V 95.038 H 297.401 V 64.906 C 297.401,29.117 268.289,0 232.504,0 196.715,0 167.598,29.117 167.598,64.906 v 30.132 h -37.235 v 9.861 c -23.206,0.2 -42.025,19.133 -42.025,42.386 v 5 h 10.033 v 45.249 c -10.927,2.31 -19.154,12.026 -19.154,23.631 0,11.604 8.227,21.321 19.154,23.63 v 51.263 c -10.421,2.293 -18.242,11.601 -18.242,22.7 0,12.815 10.427,23.242 23.242,23.242 12.815,0 23.241,-10.426 23.241,-23.242 h -10 c 0,7.301 -5.94,13.242 -13.241,13.242 -7.302,0 -13.242,-5.94 -13.242,-13.242 0,-7.302 5.94,-13.242 13.242,-13.242 h 5 v -60.721 c 10.927,-2.31 19.153,-12.026 19.153,-23.63 0,-11.605 -8.227,-21.321 -19.153,-23.631 v -45.249 h 21.992 v 44.89 c 0,40.343 23.512,75.294 57.552,91.879 5.211,14.314 16.747,24.946 30.88,29.166 v 24.199 c -10.925,2.311 -19.149,12.027 -19.149,23.63 0,11.603 8.225,21.318 19.149,23.629 v 43.271 l -42.47,8.999 V 465 h 52.474 l -0.004,-144.925 c 1.226,0.094 2.463,0.145 3.71,0.145 1.244,0 2.477,-0.051 3.7,-0.144 L 236.202,465 h 52.474 v -23.052 l -42.471,-8.999 v -43.271 c 10.926,-2.311 19.151,-12.026 19.151,-23.63 0,-11.604 -8.226,-21.319 -19.151,-23.63 v -24.197 c 14.133,-4.218 25.668,-14.851 30.879,-29.167 34.04,-16.585 57.554,-51.537 57.554,-91.88 v -44.89 h 21.993 v 45.249 c -10.927,2.31 -19.154,12.026 -19.154,23.631 0,11.604 8.227,21.321 19.154,23.63 v 60.721 h 5 c 7.301,0 13.241,5.94 13.241,13.242 0,7.302 -5.941,13.243 -13.242,13.243 -7.302,0 -13.242,-5.94 -13.242,-13.242 h -10 c 0,12.815 10.427,23.242 23.242,23.242 12.815,0 23.241,-10.426 23.241,-23.242 0.001,-11.099 -7.821,-20.406 -18.241,-22.7 z M 117.524,221.165 c 0,7.804 -6.35,14.154 -14.153,14.154 -7.805,0 -14.154,-6.35 -14.154,-14.154 0,-7.805 6.35,-14.154 14.154,-14.154 7.803,0 14.153,6.349 14.153,14.154 z m 68.801,228.887 32.47,-6.88 V 455 h -32.47 z m 23.32,-84.003 c 0,-6.041 3.811,-11.196 9.149,-13.224 v 26.447 c -5.338,-2.028 -9.149,-7.182 -9.149,-13.223 z m 69.03,84.003 V 455 h -32.471 v -11.829 z m -23.319,-84.003 c 0,6.041 -3.812,11.196 -9.151,13.224 v -26.448 c 5.339,2.027 9.151,7.182 9.151,13.224 z M 177.598,64.906 C 177.598,34.631 202.229,10 232.504,10 262.775,10 287.4,34.631 287.4,64.906 V 95.038 H 177.598 Z m -78.876,77.38 c 2.393,-15.38 15.643,-27.214 31.641,-27.394 v 27.394 z M 232.504,310.22 c -12.358,0 -23.533,-5.937 -30.421,-15.532 9.611,3.004 19.828,4.625 30.417,4.625 10.588,0 20.804,-1.62 30.415,-4.625 -6.885,9.595 -18.057,15.532 -30.411,15.532 z m 92.133,-113.045 c 0,50.805 -41.332,92.138 -92.137,92.138 -50.805,0 -92.138,-41.333 -92.138,-92.138 v -92.137 h 184.274 v 92.137 z m 10,-82.283 c 15.998,0.18 29.248,12.014 31.641,27.394 h -31.641 z m 12.839,106.273 c 0,-7.805 6.35,-14.154 14.154,-14.154 7.804,0 14.153,6.35 14.153,14.154 0,7.804 -6.35,14.154 -14.153,14.154 -7.804,0 -14.154,-6.35 -14.154,-14.154 z"
           inkscape:connector-curvature="0" />
        <path
           id="path4766"
           d="m 255.689,159.583 c 7.786,0 14.121,-6.334 14.121,-14.121 0,-7.786 -6.335,-14.121 -14.121,-14.121 -7.786,0 -14.121,6.334 -14.121,14.121 0,7.786 6.335,14.121 14.121,14.121 z m 0,-18.242 c 2.272,0 4.121,1.849 4.121,4.121 0,2.272 -1.849,4.121 -4.121,4.121 -2.272,0 -4.121,-1.849 -4.121,-4.121 0,-2.273 1.849,-4.121 4.121,-4.121 z"
           inkscape:connector-curvature="0" />
        <path
           id="path4768"
           d="m 287.612,159.583 c 7.786,0 14.121,-6.334 14.121,-14.121 0,-7.786 -6.335,-14.121 -14.121,-14.121 -7.786,0 -14.12,6.334 -14.12,14.121 0,7.786 6.334,14.121 14.12,14.121 z m 0,-18.242 c 2.272,0 4.121,1.849 4.121,4.121 0,2.272 -1.849,4.121 -4.121,4.121 -2.271,0 -4.12,-1.849 -4.12,-4.121 0,-2.273 1.848,-4.121 4.12,-4.121 z"
           inkscape:connector-curvature="0" />
        <path
           d="m 241.56799,163.26401 h 60.165 v 10 h -60.165 z"
           id="rect4770"
           inkscape:connector-curvature="0" />
        <path
           d="m 241.56799,177.85699 h 60.165 v 10 h -60.165 z"
           id="rect4772"
           inkscape:connector-curvature="0" />
        <path
           id="path4774"
           d="m 258.95,40.132 h -52.9 c -9.295,0 -16.857,7.562 -16.857,16.857 0,9.295 7.563,16.857 16.857,16.857 h 52.9 c 9.295,0 16.857,-7.562 16.857,-16.857 0,-9.295 -7.562,-16.857 -16.857,-16.857 z m -23.977,10 -8.967,13.714 h -3.554 l 8.967,-13.714 z m -35.781,6.857 c 0,-3.781 3.076,-6.857 6.857,-6.857 h 13.422 l -8.967,13.714 h -4.455 c -3.781,0 -6.857,-3.076 -6.857,-6.857 z m 59.758,6.857 h -20.997 l 8.967,-13.714 h 12.03 c 3.781,0 6.857,3.076 6.857,6.857 0,3.781 -3.076,6.857 -6.857,6.857 z"
           inkscape:connector-curvature="0" />
      </g>
      <g
         id="g4778" />
      <g
         id="g4780" />
      <g
         id="g4782" />
      <g
         id="g4784" />
      <g
         id="g4786" />
      <g
         id="g4788" />
      <g
         id="g4790" />
      <g
         id="g4792" />
      <g
         id="g4794" />
      <g
         id="g4796" />
      <g
         id="g4798" />
      <g
         id="g4800" />
      <g
         id="g4802" />
      <g
         id="g4804" />
      <g
         id="g4806" />
    </g>
    <g
       id="g5203"
       transform="matrix(0.11341918,0,0,0.11341918,230.63367,126.46818)">
      <g
         id="g5047">
        <g
           id="g5045">
          <path
             d="m 326.531,496.327 h -24.033 v -50.156 h -15.674 v 50.156 h -22.987 v -91.952 h -15.674 v 91.952 h -24.032 v -81.503 h -15.674 v 81.503 h -22.988 v -102.4 h -15.673 v 102.4 H 145.763 V 446.171 H 130.09 v 50.156 H 107.102 V 368.849 H 91.429 V 512 H 420.571 V 368.849 h -15.673 v 127.478 h -24.033 v -71.054 h -15.673 v 71.054 h -22.988 v -102.4 h -15.673 z"
             id="polygon5043"
             inkscape:connector-curvature="0" />
        </g>
      </g>
      <g
         id="g5053">
        <g
           id="g5051">
          <path
             id="path5049"
             d="M 256,0 C 165.43,0 91.719,73.544 91.435,164.049 h -0.006 v 87.771 h 15.673 v -87.249 c 0,-82.103 66.795,-148.898 148.898,-148.898 82.103,0 148.898,66.795 148.898,148.898 v 87.249 h 15.673 V 164.571 C 420.571,73.826 346.745,0 256,0 Z"
             inkscape:connector-curvature="0" />
        </g>
      </g>
      <g
         id="g5059">
        <g
           id="g5057">
          <path
             id="path5055"
             d="m 214.204,78.89 c -18.726,0 -33.959,15.235 -33.959,33.959 0,18.59 15.017,33.732 33.557,33.949 -6.233,3.969 -13.62,6.28 -21.541,6.28 v 15.673 c 30.239,0 54.93,-24.138 55.858,-54.157 0.029,-0.578 0.044,-1.16 0.044,-1.745 0,-18.725 -15.233,-33.959 -33.959,-33.959 z m 0,52.245 c -10.082,0 -18.286,-8.203 -18.286,-18.286 0,-10.083 8.203,-18.286 18.286,-18.286 10.083,0 18.286,8.203 18.286,18.286 0,10.083 -8.204,18.286 -18.286,18.286 z"
             inkscape:connector-curvature="0" />
        </g>
      </g>
      <g
         id="g5065">
        <g
           id="g5063">
          <path
             id="path5061"
             d="m 332.8,112.849 c 0,-18.725 -15.234,-33.959 -33.959,-33.959 -18.725,0 -33.959,15.235 -33.959,33.959 0,0.585 0.015,1.167 0.044,1.745 0.928,30.019 25.619,54.157 55.858,54.157 v -15.673 c -7.921,0 -15.308,-2.31 -21.542,-6.28 18.541,-0.217 33.558,-15.359 33.558,-33.949 z m -33.959,18.286 c -10.082,0 -18.286,-8.203 -18.286,-18.286 0,-10.083 8.203,-18.286 18.286,-18.286 10.083,0 18.286,8.203 18.286,18.286 0,10.083 -8.204,18.286 -18.286,18.286 z"
             inkscape:connector-curvature="0" />
        </g>
      </g>
      <g
         id="g5071">
        <g
           id="g5069">
          <path
             id="path5067"
             d="m 288.392,250.776 c 0,17.573 -14.297,31.869 -31.869,31.869 -17.572,0 -31.869,-14.296 -31.869,-31.869 H 208.98 c 0,26.215 21.327,47.543 47.543,47.543 26.216,0 47.543,-21.327 47.543,-47.543 z"
             inkscape:connector-curvature="0" />
        </g>
      </g>
      <g
         id="g5077">
        <g
           id="g5075">
          <path
             id="path5073"
             d="m 256.522,173.976 c -14.692,0 -26.645,11.953 -26.645,26.645 v 39.706 c 0,14.692 11.953,26.645 26.645,26.645 14.691,0 26.645,-11.953 26.645,-26.645 V 200.62 c 0,-14.692 -11.953,-26.644 -26.645,-26.644 z m 10.972,66.351 c 0,6.05 -4.922,10.971 -10.971,10.971 -6.05,0 -10.971,-4.922 -10.971,-10.971 V 200.62 c 0,-6.05 4.921,-10.971 10.971,-10.971 6.05,0 10.971,4.921 10.971,10.971 z"
             inkscape:connector-curvature="0" />
        </g>
      </g>
      <g
         id="g5083">
        <g
           id="g5081">
          <path
             id="path5079"
             d="m 139.494,289.437 v 34.134 c 0,8.931 -7.265,16.196 -16.196,16.196 -8.931,0 -16.196,-7.265 -16.196,-16.196 V 267.494 H 91.429 v 56.077 c 0,17.572 14.297,31.869 31.869,31.869 17.572,0 31.869,-14.296 31.869,-31.869 v -34.134 z"
             inkscape:connector-curvature="0" />
        </g>
      </g>
      <g
         id="g5089">
        <g
           id="g5087">
          <path
             d="m 139.494,220.47301 h 15.673 v 51.2 h -15.673 z"
             id="rect5085"
             inkscape:connector-curvature="0" />
        </g>
      </g>
      <g
         id="g5095">
        <g
           id="g5093">
          <path
             id="path5091"
             d="m 404.898,267.494 v 56.077 c 0,8.931 -7.265,16.196 -16.196,16.196 -8.931,0 -16.196,-7.265 -16.196,-16.196 v -34.134 h -15.673 v 34.134 c 0,17.573 14.297,31.869 31.869,31.869 17.572,0 31.869,-14.296 31.869,-31.869 v -56.077 z"
             inkscape:connector-curvature="0" />
        </g>
      </g>
      <g
         id="g5101">
        <g
           id="g5099">
          <path
             d="m 356.83301,220.47301 h 15.673 v 51.2 h -15.673 z"
             id="rect5097"
             inkscape:connector-curvature="0" />
        </g>
      </g>
      <g
         id="g5107">
        <g
           id="g5105">
          <path
             d="m 130.09,409.60001 h 15.673 v 26.122 H 130.09 Z"
             id="rect5103"
             inkscape:connector-curvature="0" />
        </g>
      </g>
      <g
         id="g5113">
        <g
           id="g5111">
          <path
             d="M 286.82401,408.55499 H 302.498 v 26.122 h -15.67399 z"
             id="rect5109"
             inkscape:connector-curvature="0" />
        </g>
      </g>
      <g
         id="g5115" />
      <g
         id="g5117" />
      <g
         id="g5119" />
      <g
         id="g5121" />
      <g
         id="g5123" />
      <g
         id="g5125" />
      <g
         id="g5127" />
      <g
         id="g5129" />
      <g
         id="g5131" />
      <g
         id="g5133" />
      <g
         id="g5135" />
      <g
         id="g5137" />
      <g
         id="g5139" />
      <g
         id="g5141" />
      <g
         id="g5143" />
    </g>
    <g
       aria-label="@OuijaRobot version 1.0"
       style="font-style:normal;font-weight:normal;font-size:10.58333302px;line-height:1.25;font-family:sans-serif;letter-spacing:0px;word-spacing:0px;fill:#000000;fill-opacity:1;stroke:none;stroke-width:0.26458332"
       id="text5207"
       transform="translate(0.41119397,30.428354)">
      <path
         d="m 125.3763,109.59273 v -1.16445 q 0,-0.46164 -0.31006,-0.8406 -0.31006,-0.38585 -0.69591,-0.38585 -0.38585,0 -0.64079,0.17915 -0.24804,0.17225 -0.39274,0.44786 -0.1378,0.27561 -0.21359,0.57877 -0.0689,0.30317 -0.0689,0.59945 0,0.29628 0.062,0.59945 0.0689,0.30317 0.2067,0.59255 0.29628,0.64768 0.95085,0.64768 0.46164,0 0.77859,-0.38585 0.32384,-0.39274 0.32384,-0.86816 z m 0.0276,1.08865 q -0.55121,0.7028 -1.3367,0.7028 -0.57877,0 -1.03353,-0.36518 -0.44786,-0.37207 -0.66834,-0.90262 -0.22049,-0.53743 -0.22049,-1.10243 0,-0.56499 0.22049,-1.09554 0.22048,-0.53054 0.66834,-0.89572 0.45476,-0.37207 1.03353,-0.37207 0.76481,0 1.30914,0.68212 v -0.62011 h 0.60634 v 3.09369 q 0,0.18604 0.19292,0.39274 0.19982,0.20671 0.40652,0.20671 0.20671,0 0.37207,-0.2136 0.17226,-0.22048 0.25494,-0.55121 0.14469,-0.60634 0.14469,-1.17133 0,-0.565 -0.17225,-1.13 -0.17226,-0.57188 -0.50298,-1.02663 -0.32384,-0.45476 -0.85439,-0.71658 -0.53054,-0.26872 -1.23334,-0.26872 -0.7028,0 -1.32981,0.31695 -0.62012,0.31006 -1.02664,0.83371 -0.86127,1.10932 -0.86127,2.56315 0,1.51584 0.86816,2.55626 0.41341,0.4961 1.04042,0.78548 0.6339,0.28939 1.39871,0.28939 1.10932,0 1.92925,-0.57188 l 0.38585,0.48231 q -1.00596,0.75103 -2.23931,0.75103 -1.85346,0 -3.01101,-1.192 -1.15755,-1.1989 -1.15755,-3.06614 0,-1.85346 1.12999,-3.0868 0.53054,-0.57878 1.30913,-0.90951 0.78549,-0.33762 1.70877,-0.33762 1.64676,0 2.72852,1.02664 1.08865,1.02664 1.08865,2.65961 0,1.01975 -0.51677,1.91548 -0.25493,0.42719 -0.68213,0.69591 -0.42719,0.26871 -0.84749,0.26871 -0.7717,0 -1.10243,-0.627 z"
         style="font-style:normal;font-variant:normal;font-weight:normal;font-stretch:normal;font-size:14.11111069px;font-family:Rachana;-inkscape-font-specification:Rachana;text-align:center;text-anchor:middle;stroke-width:0.26458332"
         id="path5311"
         inkscape:connector-curvature="0" />
      <path
         d="m 135.38775,111.0879 q 0.17914,-0.48921 0.24804,-0.96463 0.0689,-0.48231 0.0689,-0.95773 0,-0.47543 -0.0827,-0.97841 -0.0758,-0.50988 -0.26871,-1.04042 -0.18604,-0.53055 -0.46165,-0.94396 -0.26871,-0.41341 -0.69591,-0.67524 -0.4203,-0.26871 -0.90261,-0.26871 -0.47542,0 -0.8475,0.17225 -0.36518,0.16537 -0.62011,0.45475 -0.25494,0.28939 -0.44097,0.65457 -0.18604,0.36518 -0.28939,0.79237 -0.2136,0.84061 -0.2136,1.47451 0,0.627 0.0758,1.12999 0.0827,0.49609 0.26872,1.01285 0.19293,0.51677 0.46164,0.92329 0.27561,0.39963 0.69591,0.66146 0.42719,0.25494 0.94396,0.25494 0.52365,0 0.94396,-0.23427 0.4203,-0.23427 0.68212,-0.60634 0.26183,-0.37207 0.43409,-0.86127 z m 0.66145,-5.02984 q 0.45476,0.61323 0.69591,1.38493 0.24805,0.7717 0.24805,1.53651 0,0.75792 -0.15158,1.38493 -0.15159,0.62701 -0.46165,1.17133 -0.30316,0.53744 -0.73725,0.94396 -0.93017,0.86127 -2.34955,0.86127 -2.06017,0 -3.0937,-1.81212 -0.61322,-1.06798 -0.61322,-2.46669 0,-1.39871 0.61322,-2.48736 0.66146,-1.17822 1.78456,-1.61919 0.60634,-0.23427 1.39182,-0.23427 0.79237,0 1.50895,0.36518 0.71658,0.35829 1.16444,0.97152 z"
         style="font-style:normal;font-variant:normal;font-weight:normal;font-stretch:normal;font-size:14.11111069px;font-family:Rachana;-inkscape-font-specification:Rachana;text-align:center;text-anchor:middle;stroke-width:0.26458332"
         id="path5313"
         inkscape:connector-curvature="0" />
      <path
         d="m 138.01291,111.54954 0.0896,-2.8801 q 0,-0.44786 -0.11713,-1.52962 h 1.192 v 4.27192 q 0,0.54432 0.27561,0.88194 0.27561,0.33073 0.86127,0.33073 0.59256,0 1.13688,-0.46853 0.55122,-0.46854 0.55122,-1.10932 v -3.90674 h 1.15755 q -0.11713,1.55718 -0.11713,3.03168 0,1.46761 0.11713,3.0248 h -1.08865 l -0.062,-0.93018 q -0.33073,0.49609 -0.87506,0.78548 -0.54432,0.28939 -1.25401,0.28939 -0.7028,0 -1.28847,-0.4892 -0.57877,-0.4961 -0.57877,-1.30225 z"
         style="font-style:normal;font-variant:normal;font-weight:normal;font-stretch:normal;font-size:14.11111069px;font-family:Rachana;-inkscape-font-specification:Rachana;text-align:center;text-anchor:middle;stroke-width:0.26458332"
         id="path5315"
         inkscape:connector-curvature="0" />
      <path
         d="m 145.537,113.1963 h -1.1231 q 0.16536,-1.72944 0.16536,-3.19705 0,-1.46761 -0.16536,-2.81809 h 1.1231 q -0.0827,1.88102 -0.0827,3.31418 0,1.43316 0.0827,2.70096 z m -0.57189,-8.24756 q 0.29628,0 0.50298,0.22048 0.2136,0.22049 0.2136,0.53055 0,0.30317 -0.2136,0.53054 -0.2067,0.22049 -0.50298,0.22049 -0.29628,0 -0.50987,-0.22049 -0.20671,-0.22737 -0.20671,-0.53054 0,-0.31006 0.20671,-0.53055 0.21359,-0.22048 0.50987,-0.22048 z"
         style="font-style:normal;font-variant:normal;font-weight:normal;font-stretch:normal;font-size:14.11111069px;font-family:Rachana;-inkscape-font-specification:Rachana;text-align:center;text-anchor:middle;stroke-width:0.26458332"
         id="path5317"
         inkscape:connector-curvature="0" />
      <path
         d="m 149.00276,109.56517 0.0689,4.28569 q 0,0.81994 -0.47543,1.4056 -0.46853,0.58567 -1.3367,0.58567 -0.86127,0 -1.3298,-0.79926 l 0.19292,-0.62012 q 0.20671,0.7028 0.9853,0.7028 0.42719,0 0.62701,-0.33762 0.2825,-0.48231 0.2825,-1.52962 0,-3.4451 -0.11025,-6.1116 h 1.16445 q -0.0689,1.09554 -0.0689,2.41846 z m -0.51676,-4.6371 q 0.30317,0 0.51676,0.22048 0.22049,0.22049 0.22049,0.53055 0,0.30317 -0.22049,0.53054 -0.22048,0.22049 -0.51676,0.22049 -0.29628,0 -0.51677,-0.22049 -0.21359,-0.22737 -0.21359,-0.53054 0,-0.31006 0.21359,-0.53055 0.2136,-0.22048 0.51677,-0.22048 z"
         style="font-style:normal;font-variant:normal;font-weight:normal;font-stretch:normal;font-size:14.11111069px;font-family:Rachana;-inkscape-font-specification:Rachana;text-align:center;text-anchor:middle;stroke-width:0.26458332"
         id="path5319"
         inkscape:connector-curvature="0" />
      <path
         d="m 154.15663,110.90186 q 0,-0.16536 -0.0345,-1.01285 -0.30316,0.11713 -0.8406,0.21359 -0.53054,0.0965 -0.82682,0.19982 -0.29628,0.10335 -0.4961,0.23426 -0.47542,0.31695 -0.47542,0.89573 0,0.57188 0.28939,0.89572 0.29628,0.32384 0.89572,0.32384 0.59945,0 1.04042,-0.51676 0.44787,-0.51677 0.44787,-1.23335 z m 1.16444,-1.48828 -0.062,1.757 q 0,0.88195 0.19292,2.07395 h -1.08865 l -0.0276,-0.92329 q -0.30317,0.50299 -0.86127,0.7717 -0.55811,0.26183 -1.29536,0.26183 -0.73725,0 -1.30225,-0.49609 -0.56499,-0.50299 -0.56499,-1.3367 0,-0.92329 0.68213,-1.35048 0.59944,-0.37896 1.52962,-0.51676 1.07487,-0.16537 1.57785,-0.33073 -0.0138,-0.76481 -0.40652,-1.27469 -0.38585,-0.50987 -1.01286,-0.50987 -0.627,0 -1.08865,0.28939 -0.46164,0.2825 -0.68901,0.75103 l -0.39275,-0.41341 q 0.40653,-0.55811 1.02664,-0.86128 0.62012,-0.31005 1.32292,-0.31005 1.07487,0 1.76389,0.67523 0.69591,0.66835 0.69591,1.74322 z"
         style="font-style:normal;font-variant:normal;font-weight:normal;font-stretch:normal;font-size:14.11111069px;font-family:Rachana;-inkscape-font-specification:Rachana;text-align:center;text-anchor:middle;stroke-width:0.26458332"
         id="path5321"
         inkscape:connector-curvature="0" />
      <path
         d="m 159.02799,108.80725 q 0.81304,0 1.37115,-0.46165 0.565,-0.46853 0.565,-1.25401 0,-0.78548 -0.53744,-1.24024 -0.53743,-0.46164 -1.32292,-0.46164 h -1.39181 v 3.41754 z m -1.50206,-3.92052 1.97749,-0.0482 q 1.06108,0 1.85346,0.51676 0.85438,0.565 0.85438,1.68121 0,0.90261 -0.59945,1.5434 -0.59944,0.6339 -1.49517,0.68902 0.11025,0.19292 0.46854,0.87505 0.36518,0.68213 0.59255,1.06109 0.22738,0.37207 0.70969,1.04731 0.48921,0.66835 0.66835,0.94396 h -1.37115 l -2.12907,-3.83784 h -1.34358 v 3.83784 h -1.1989 q 0.11025,-2.06706 0.11025,-4.16857 0,-2.10151 -0.11025,-4.18923 0.42719,0.0482 1.01286,0.0482 z"
         style="font-style:normal;font-variant:normal;font-weight:normal;font-stretch:normal;font-size:14.11111069px;font-family:Rachana;-inkscape-font-specification:Rachana;text-align:center;text-anchor:middle;stroke-width:0.26458332"
         id="path5323"
         inkscape:connector-curvature="0" />
      <path
         d="m 167.90945,111.53576 q 0.12402,-0.37207 0.16536,-0.72347 0.0482,-0.35829 0.0482,-0.76481 0,-0.40652 -0.0827,-0.81993 -0.0827,-0.4203 -0.26872,-0.81305 -0.17914,-0.39274 -0.52365,-0.627 -0.34451,-0.24116 -0.7717,-0.24116 -0.42031,0 -0.72347,0.16536 -0.30317,0.15848 -0.48921,0.41342 -0.18603,0.25493 -0.31006,0.60633 -0.2067,0.61323 -0.2067,1.23335 0,0.61322 0.0827,1.04731 0.0827,0.43408 0.26183,0.86127 0.17914,0.4203 0.51676,0.68213 0.34451,0.25494 0.76481,0.25494 0.4272,0 0.73036,-0.17226 0.31006,-0.17914 0.4961,-0.45475 0.18603,-0.2825 0.31006,-0.64768 z m 1.42627,-1.39871 q 0,0.86128 -0.3514,1.59164 -0.3514,0.73036 -1.02664,1.18511 -0.66835,0.44786 -1.52963,0.44786 -0.86127,0 -1.53651,-0.44786 -0.66835,-0.45475 -1.01286,-1.18511 -0.34451,-0.73036 -0.34451,-1.59164 0,-1.31602 0.79927,-2.22553 0.80615,-0.91639 2.09461,-0.91639 1.28847,0 2.09462,0.91639 0.81305,0.90951 0.81305,2.22553 z"
         style="font-style:normal;font-variant:normal;font-weight:normal;font-stretch:normal;font-size:14.11111069px;font-family:Rachana;-inkscape-font-specification:Rachana;text-align:center;text-anchor:middle;stroke-width:0.26458332"
         id="path5325"
         inkscape:connector-curvature="0" />
      <path
         d="m 174.35178,111.73558 q 0.19981,-0.39274 0.30317,-0.81994 0.10335,-0.43408 0.10335,-0.85438 0,-0.42719 -0.0896,-0.81304 -0.0827,-0.38585 -0.26183,-0.73036 -0.17915,-0.34451 -0.50299,-0.55122 -0.32383,-0.21359 -0.74414,-0.21359 -1.1231,0 -1.4745,1.18511 -0.18603,0.59945 -0.18603,2.14285 0,0.60633 0.44097,1.06798 0.44097,0.45475 0.96463,0.45475 0.53054,0 0.88883,-0.24116 0.35829,-0.24115 0.55811,-0.627 z m -2.79053,0.67523 -0.062,0.78549 h -1.10243 q 0.1378,-2.69407 0.1378,-4.26503 0,-1.57786 -0.1378,-4.05832 h 1.17133 v 3.0868 q 0.33073,-0.42719 0.79237,-0.68213 0.46164,-0.26182 1.03353,-0.26182 0.57189,0 1.07487,0.2756 0.50298,0.27561 0.81304,0.73036 0.6339,0.93018 0.6339,2.16352 0,1.57097 -0.9164,2.50114 -0.65456,0.66146 -1.70187,0.66146 -1.04042,0 -1.73633,-0.93707 z"
         style="font-style:normal;font-variant:normal;font-weight:normal;font-stretch:normal;font-size:14.11111069px;font-family:Rachana;-inkscape-font-specification:Rachana;text-align:center;text-anchor:middle;stroke-width:0.26458332"
         id="path5327"
         inkscape:connector-curvature="0" />
      <path
         d="m 181.33154,111.53576 q 0.12402,-0.37207 0.16536,-0.72347 0.0482,-0.35829 0.0482,-0.76481 0,-0.40652 -0.0827,-0.81993 -0.0827,-0.4203 -0.26872,-0.81305 -0.17914,-0.39274 -0.52365,-0.627 -0.34451,-0.24116 -0.7717,-0.24116 -0.4203,0 -0.72347,0.16536 -0.30317,0.15848 -0.4892,0.41342 -0.18604,0.25493 -0.31006,0.60633 -0.20671,0.61323 -0.20671,1.23335 0,0.61322 0.0827,1.04731 0.0827,0.43408 0.26183,0.86127 0.17915,0.4203 0.51676,0.68213 0.34451,0.25494 0.76482,0.25494 0.42719,0 0.73036,-0.17226 0.31005,-0.17914 0.49609,-0.45475 0.18603,-0.2825 0.31006,-0.64768 z m 1.42627,-1.39871 q 0,0.86128 -0.3514,1.59164 -0.3514,0.73036 -1.02664,1.18511 -0.66835,0.44786 -1.52962,0.44786 -0.86128,0 -1.53652,-0.44786 -0.66834,-0.45475 -1.01285,-1.18511 -0.34451,-0.73036 -0.34451,-1.59164 0,-1.31602 0.79926,-2.22553 0.80615,-0.91639 2.09462,-0.91639 1.28846,0 2.09462,0.91639 0.81304,0.90951 0.81304,2.22553 z"
         style="font-style:normal;font-variant:normal;font-weight:normal;font-stretch:normal;font-size:14.11111069px;font-family:Rachana;-inkscape-font-specification:Rachana;text-align:center;text-anchor:middle;stroke-width:0.26458332"
         id="path5329"
         inkscape:connector-curvature="0" />
      <path
         d="m 184.06694,111.5771 0.062,-2.11529 v -1.6812 h -0.56499 v -0.65457 h 0.57188 v -0.17226 q 0,-0.67523 -0.0689,-1.69498 h 1.15756 q -0.0482,1.09554 -0.062,1.86724 h 1.07487 v 0.65457 h -1.08865 q -0.0276,1.45383 -0.0276,2.48736 0,1.02663 0,1.15755 0.007,0.12402 0.0276,0.33073 0.0207,0.19981 0.0689,0.33762 0.0482,0.1378 0.12403,0.2756 0.15158,0.27561 0.47542,0.27561 0.33073,0 0.51677,-0.16536 0.18603,-0.17226 0.28938,-0.55811 l 0.17915,0.70969 q -0.19982,0.38585 -0.47542,0.55811 -0.26872,0.16536 -0.68902,0.16536 -0.74414,0 -1.15756,-0.50298 -0.41341,-0.50299 -0.41341,-1.27469 z"
         style="font-style:normal;font-variant:normal;font-weight:normal;font-stretch:normal;font-size:14.11111069px;font-family:Rachana;-inkscape-font-specification:Rachana;text-align:center;text-anchor:middle;stroke-width:0.26458332"
         id="path5331"
         inkscape:connector-curvature="0" />
      <path
         d="m 130.48193,124.98804 h 0.78548 l -2.48047,6.05647 h -1.01285 l -2.34956,-6.05647 h 1.21267 q 0.58567,2.51491 1.83969,4.95404 z"
         style="font-style:normal;font-variant:normal;font-weight:normal;font-stretch:normal;font-size:14.11111069px;font-family:Rachana;-inkscape-font-specification:Rachana;text-align:center;text-anchor:middle;stroke-width:0.26458332"
         id="path5333"
         inkscape:connector-curvature="0" />
      <path
         d="m 133.16222,127.59253 h 3.21771 q 0.0207,-0.96463 -0.4892,-1.54341 -0.37207,-0.42719 -1.08176,-0.42719 -0.7028,0 -1.16444,0.58567 -0.45475,0.58567 -0.48231,1.38493 z m 4.43728,0.17225 v 0.43408 h -4.49241 v 0.0138 q 0,1.04731 0.51677,1.67432 0.51676,0.62701 1.53651,0.62701 0.58567,0 1.11621,-0.28939 0.53744,-0.29628 0.88884,-0.81304 l 0.29627,0.61322 q -0.44097,0.54433 -1.08176,0.84061 -0.63389,0.29628 -1.3298,0.29628 -1.41938,0 -2.29444,-0.88195 -0.86816,-0.88194 -0.86816,-2.26687 0,-1.38493 0.84749,-2.27376 0.85439,-0.89573 2.14974,-0.89573 1.29536,0 2.01194,0.81304 0.71658,0.81305 0.7028,2.1084 z"
         style="font-style:normal;font-variant:normal;font-weight:normal;font-stretch:normal;font-size:14.11111069px;font-family:Rachana;-inkscape-font-specification:Rachana;text-align:center;text-anchor:middle;stroke-width:0.26458332"
         id="path5335"
         inkscape:connector-curvature="0" />
      <path
         d="m 142.75336,125.02249 -0.42719,1.01285 q -0.46853,-0.31005 -0.99908,-0.31005 -0.52365,0 -0.96463,0.48231 -0.43408,0.48231 -0.4892,1.09554 -0.0276,0.33762 -0.0207,0.72347 0.0138,0.37896 0.0138,0.49609 l 0.007,2.52181 h -1.16444 q 0.11713,-1.56407 0.11713,-3.00412 0,-1.44694 -0.11713,-3.04546 h 1.02664 l 0.12402,1.01974 q 0.33762,-0.54432 0.86127,-0.86127 0.53055,-0.31695 1.06109,-0.31695 0.53744,0 0.97152,0.18604 z"
         style="font-style:normal;font-variant:normal;font-weight:normal;font-stretch:normal;font-size:14.11111069px;font-family:Rachana;-inkscape-font-specification:Rachana;text-align:center;text-anchor:middle;stroke-width:0.26458332"
         id="path5337"
         inkscape:connector-curvature="0" />
      <path
         d="m 147.61784,127.87503 q 0.37896,0.22737 0.59944,0.59944 0.22738,0.36518 0.22738,0.8475 0,0.48231 -0.22738,0.86127 -0.22048,0.37896 -0.59255,0.58567 -0.73725,0.4203 -1.57786,0.4203 -1.81212,0 -2.74918,-1.00597 l 0.44786,-0.55811 q 0.39274,0.46165 0.9853,0.70969 0.59944,0.24116 1.19889,0.24116 0.59945,0 1.03353,-0.25494 0.44097,-0.26182 0.44097,-0.79926 0,-0.29628 -0.15847,-0.53054 -0.28939,-0.40653 -1.25402,-0.53744 -1.06798,-0.1378 -1.39871,-0.27561 -0.33073,-0.14469 -0.53743,-0.26871 -0.20671,-0.13092 -0.33073,-0.2825 -0.28939,-0.36518 -0.28939,-0.81304 0,-0.45476 0.1378,-0.7786 0.1447,-0.33072 0.37896,-0.54432 0.23427,-0.22049 0.55122,-0.37207 0.59945,-0.27561 1.35737,-0.27561 1.4745,0 2.47358,0.8406 l -0.43409,0.52366 q -0.37896,-0.35829 -0.94395,-0.54433 -0.55811,-0.19292 -1.00597,-0.19292 -0.44786,0 -0.73725,0.0827 -0.28939,0.0758 -0.50987,0.31006 -0.2136,0.22738 -0.2136,0.6339 0,0.57188 1.08865,0.73725 0.89572,0.15158 1.27468,0.2825 0.38586,0.13091 0.76482,0.35829 z"
         style="font-style:normal;font-variant:normal;font-weight:normal;font-stretch:normal;font-size:14.11111069px;font-family:Rachana;-inkscape-font-specification:Rachana;text-align:center;text-anchor:middle;stroke-width:0.26458332"
         id="path5339"
         inkscape:connector-curvature="0" />
      <path
         d="m 150.82866,131.04451 h -1.1231 q 0.16537,-1.72943 0.16537,-3.19705 0,-1.46761 -0.16537,-2.81808 h 1.1231 q -0.0827,1.88102 -0.0827,3.31418 0,1.43316 0.0827,2.70095 z m -0.57188,-8.24756 q 0.29628,0 0.50298,0.22049 0.2136,0.22049 0.2136,0.53055 0,0.30316 -0.2136,0.53054 -0.2067,0.22049 -0.50298,0.22049 -0.29628,0 -0.50988,-0.22049 -0.2067,-0.22738 -0.2067,-0.53054 0,-0.31006 0.2067,-0.53055 0.2136,-0.22049 0.50988,-0.22049 z"
         style="font-style:normal;font-variant:normal;font-weight:normal;font-stretch:normal;font-size:14.11111069px;font-family:Rachana;-inkscape-font-specification:Rachana;text-align:center;text-anchor:middle;stroke-width:0.26458332"
         id="path5341"
         inkscape:connector-curvature="0" />
      <path
         d="m 156.41661,129.38398 q 0.12402,-0.37207 0.16536,-0.72347 0.0482,-0.35829 0.0482,-0.76481 0,-0.40653 -0.0827,-0.81994 -0.0827,-0.4203 -0.26871,-0.81304 -0.17915,-0.39274 -0.52366,-0.62701 -0.34451,-0.24115 -0.7717,-0.24115 -0.4203,0 -0.72347,0.16536 -0.30317,0.15848 -0.4892,0.41341 -0.18604,0.25494 -0.31006,0.60634 -0.20671,0.61323 -0.20671,1.23334 0,0.61323 0.0827,1.04731 0.0827,0.43408 0.26183,0.86128 0.17915,0.4203 0.51677,0.68213 0.34451,0.25493 0.76481,0.25493 0.42719,0 0.73036,-0.17225 0.31006,-0.17915 0.49609,-0.45476 0.18604,-0.28249 0.31006,-0.64767 z m 1.42627,-1.39871 q 0,0.86127 -0.3514,1.59163 -0.3514,0.73036 -1.02664,1.18512 -0.66835,0.44786 -1.52962,0.44786 -0.86128,0 -1.53651,-0.44786 -0.66835,-0.45476 -1.01286,-1.18512 -0.34451,-0.73036 -0.34451,-1.59163 0,-1.31603 0.79926,-2.22553 0.80615,-0.9164 2.09462,-0.9164 1.28846,0 2.09462,0.9164 0.81304,0.9095 0.81304,2.22553 z"
         style="font-style:normal;font-variant:normal;font-weight:normal;font-stretch:normal;font-size:14.11111069px;font-family:Rachana;-inkscape-font-specification:Rachana;text-align:center;text-anchor:middle;stroke-width:0.26458332"
         id="path5343"
         inkscape:connector-curvature="0" />
      <path
         d="m 164.11984,126.90351 -0.0896,2.64583 q 0,0.64079 0.0896,1.49517 h -1.15755 v -3.57601 q 0,-1.3298 -0.62701,-1.75699 -0.25493,-0.17226 -0.62011,-0.17226 -0.66146,0 -1.1231,0.50987 -0.45476,0.50988 -0.45476,1.19201 v 3.80338 h -1.15755 q 0.11713,-1.58474 0.11713,-3.02479 0,-1.44005 -0.11713,-3.02479 h 1.01286 l 0.13091,0.88883 q 0.33073,-0.47542 0.8475,-0.75792 0.51676,-0.28939 1.08176,-0.28939 0.88194,0 1.4745,0.58567 0.59255,0.58566 0.59255,1.48139 z"
         style="font-style:normal;font-variant:normal;font-weight:normal;font-stretch:normal;font-size:14.11111069px;font-family:Rachana;-inkscape-font-specification:Rachana;text-align:center;text-anchor:middle;stroke-width:0.26458332"
         id="path5345"
         inkscape:connector-curvature="0" />
      <path
         d="m 169.10145,124.81578 q 0.59945,-0.38585 1.22646,-1.02664 h 1.09554 q -0.17915,1.86724 -0.17915,3.64491 0,1.77078 0.17915,3.61735 h -1.32981 v -6.01513 l -0.99219,0.52365 z"
         style="font-style:normal;font-variant:normal;font-weight:normal;font-stretch:normal;font-size:14.11111069px;font-family:Rachana;-inkscape-font-specification:Rachana;text-align:center;text-anchor:middle;stroke-width:0.26458332"
         id="path5347"
         inkscape:connector-curvature="0" />
      <path
         d="m 173.36648,129.42532 q 0.37207,0 0.64768,0.24805 0.28249,0.24804 0.28249,0.61322 0,0.36518 -0.26871,0.6339 -0.26183,0.26183 -0.65457,0.26183 -0.38585,0 -0.65457,-0.25494 -0.26872,-0.25494 -0.26872,-0.64768 0,-0.39274 0.26872,-0.62012 0.27561,-0.23426 0.64768,-0.23426 z"
         style="font-style:normal;font-variant:normal;font-weight:normal;font-stretch:normal;font-size:14.11111069px;font-family:Rachana;-inkscape-font-specification:Rachana;text-align:center;text-anchor:middle;stroke-width:0.26458332"
         id="path5349"
         inkscape:connector-curvature="0" />
      <path
         d="m 179.91216,128.50203 q 0.0551,-0.44786 0.0758,-0.76481 0.0207,-0.32384 0.0207,-0.66146 0,-0.34451 -0.0276,-0.66835 -0.0207,-0.33072 -0.11024,-0.75103 -0.0896,-0.42719 -0.24116,-0.73725 -0.14469,-0.31006 -0.42719,-0.52365 -0.27561,-0.22049 -0.62012,-0.22049 -0.34451,0 -0.60634,0.13781 -0.26182,0.1378 -0.43408,0.35829 -0.17225,0.22048 -0.30317,0.53743 -0.12402,0.31695 -0.19292,0.62701 -0.0689,0.31006 -0.11713,0.67524 -0.062,0.54432 -0.062,1.04042 0,0.49609 0.0207,0.83371 0.0276,0.33073 0.11714,0.76481 0.0965,0.43408 0.24115,0.75792 0.15159,0.31695 0.43409,0.54433 0.28249,0.22048 0.64767,0.22048 0.37207,0 0.66146,-0.17914 0.28939,-0.18604 0.46165,-0.50988 0.17914,-0.32384 0.29627,-0.68213 0.11714,-0.35829 0.16537,-0.79926 z m 1.28157,-1.09554 q 0,0.55811 -0.0827,1.07487 -0.0827,0.51677 -0.2825,1.01975 -0.19981,0.50298 -0.50987,0.86816 -0.68213,0.82683 -1.87413,0.82683 -1.72255,0 -2.39779,-1.69499 -0.37207,-0.9164 -0.37207,-2.10151 0,-1.92236 0.88195,-2.95589 0.6959,-0.80615 1.88791,-0.80615 1.71566,0 2.384,1.67431 0.36518,0.9164 0.36518,2.09462 z"
         style="font-style:normal;font-variant:normal;font-weight:normal;font-stretch:normal;font-size:14.11111069px;font-family:Rachana;-inkscape-font-specification:Rachana;text-align:center;text-anchor:middle;stroke-width:0.26458332"
         id="path5351"
         inkscape:connector-curvature="0" />
    </g>
  </g>
</svg>
