  0
SECTION
  2
BLOCKS
  0
ENDSEC
  0
SECTION
  2
ENTITIES
  0
LINE
  8
0
 10
18.5522
 20
-15.2254
 11
19.9552
 21
-13.3337
  0
LINE
  8
0
 10
19.9552
 20
-13.3337
 11
21.1661
 21
-11.3135
  0
LINE
  8
0
 10
21.1661
 20
-11.3135
 11
22.1731
 21
-9.1844
  0
LINE
  8
0
 10
22.1731
 20
-9.1844
 11
47.629
 21
50.2125
  0
LINE
  8
0
 10
47.629
 20
50.2125
 11
48.4224
 21
52.4301
  0
LINE
  8
0
 10
48.4224
 20
52.4301
 11
48.9353
 21
54.4775
  0
LINE
  8
0
 10
48.9353
 20
54.4775
 11
49.326
 21
55.3037
  0
LINE
  8
0
 10
49.326
 20
55.3037
 11
50.1195
 21
57.5213
  0
LINE
  8
0
 10
50.1195
 20
57.5213
 11
50.6917
 21
59.806
  0
LINE
  8
0
 10
50.6917
 20
59.806
 11
51.0373
 21
62.1357
  0
LINE
  8
0
 10
51.0373
 20
62.1357
 11
51.1529
 21
64.4881
  0
LINE
  8
0
 10
51.1529
 20
64.4881
 11
51.0373
 21
66.8405
  0
LINE
  8
0
 10
51.0373
 20
66.8405
 11
50.6917
 21
69.1703
  0
LINE
  8
0
 10
50.6917
 20
69.1703
 11
50.1195
 21
71.4549
  0
LINE
  8
0
 10
50.1195
 20
71.4549
 11
49.326
 21
73.6725
  0
LINE
  8
0
 10
49.326
 20
73.6725
 11
48.319
 21
75.8016
  0
LINE
  8
0
 10
48.319
 20
75.8016
 11
47.1082
 21
77.8218
  0
LINE
  8
0
 10
47.1082
 20
77.8218
 11
45.7052
 21
79.7136
  0
LINE
  8
0
 10
45.7052
 20
79.7136
 11
44.1235
 21
81.4587
  0
LINE
  8
0
 10
44.1235
 20
81.4587
 11
42.3783
 21
83.0404
  0
LINE
  8
0
 10
42.3783
 20
83.0404
 11
40.4866
 21
84.4434
  0
LINE
  8
0
 10
40.4866
 20
84.4434
 11
38.4664
 21
85.6542
  0
LINE
  8
0
 10
38.4664
 20
85.6542
 11
36.3373
 21
86.6612
  0
LINE
  8
0
 10
36.3373
 20
86.6612
 11
34.1197
 21
87.4547
  0
LINE
  8
0
 10
34.1197
 20
87.4547
 11
31.8351
 21
88.0269
  0
LINE
  8
0
 10
31.8351
 20
88.0269
 11
29.5053
 21
88.3725
  0
LINE
  8
0
 10
29.5053
 20
88.3725
 11
27.1529
 21
88.4881
  0
LINE
  8
0
 10
27.1529
 20
88.4881
 11
24.8005
 21
88.3725
  0
LINE
  8
0
 10
24.8005
 20
88.3725
 11
22.4707
 21
88.0269
  0
LINE
  8
0
 10
22.4707
 20
88.0269
 11
20.1861
 21
87.4547
  0
LINE
  8
0
 10
20.1861
 20
87.4547
 11
17.9685
 21
86.6612
  0
LINE
  8
0
 10
17.9685
 20
86.6612
 11
15.8394
 21
85.6542
  0
LINE
  8
0
 10
15.8394
 20
85.6542
 11
13.8192
 21
84.4434
  0
LINE
  8
0
 10
13.8192
 20
84.4434
 11
12.4082
 21
83.3969
  0
LINE
  8
0
 10
12.4082
 20
83.3969
 11
-12.4082
 21
83.3969
  0
LINE
  8
0
 10
-12.4082
 20
83.3969
 11
-13.8192
 21
84.4434
  0
LINE
  8
0
 10
-13.8192
 20
84.4434
 11
-15.8394
 21
85.6542
  0
LINE
  8
0
 10
-15.8394
 20
85.6542
 11
-17.9685
 21
86.6612
  0
LINE
  8
0
 10
-17.9685
 20
86.6612
 11
-20.1861
 21
87.4547
  0
LINE
  8
0
 10
-20.1861
 20
87.4547
 11
-22.4707
 21
88.0269
  0
LINE
  8
0
 10
-22.4707
 20
88.0269
 11
-24.8005
 21
88.3725
  0
LINE
  8
0
 10
-24.8005
 20
88.3725
 11
-27.1529
 21
88.4881
  0
LINE
  8
0
 10
-27.1529
 20
88.4881
 11
-29.5053
 21
88.3725
  0
LINE
  8
0
 10
-29.5053
 20
88.3725
 11
-31.8351
 21
88.0269
  0
LINE
  8
0
 10
-31.8351
 20
88.0269
 11
-34.1197
 21
87.4547
  0
LINE
  8
0
 10
-34.1197
 20
87.4547
 11
-36.3373
 21
86.6612
  0
LINE
  8
0
 10
-36.3373
 20
86.6612
 11
-38.4664
 21
85.6542
  0
LINE
  8
0
 10
-38.4664
 20
85.6542
 11
-40.4866
 21
84.4434
  0
LINE
  8
0
 10
-40.4866
 20
84.4434
 11
-42.3783
 21
83.0404
  0
LINE
  8
0
 10
-42.3783
 20
83.0404
 11
-44.1235
 21
81.4587
  0
LINE
  8
0
 10
-44.1235
 20
81.4587
 11
-45.7052
 21
79.7136
  0
LINE
  8
0
 10
-45.7052
 20
79.7136
 11
-47.1082
 21
77.8218
  0
LINE
  8
0
 10
-47.1082
 20
77.8218
 11
-48.319
 21
75.8016
  0
LINE
  8
0
 10
-48.319
 20
75.8016
 11
-49.326
 21
73.6725
  0
LINE
  8
0
 10
-49.326
 20
73.6725
 11
-50.1195
 21
71.4549
  0
LINE
  8
0
 10
-50.1195
 20
71.4549
 11
-50.6917
 21
69.1703
  0
LINE
  8
0
 10
-50.6917
 20
69.1703
 11
-51.0373
 21
66.8405
  0
LINE
  8
0
 10
-51.0373
 20
66.8405
 11
-51.1529
 21
64.4881
  0
LINE
  8
0
 10
-51.1529
 20
64.4881
 11
-51.0373
 21
62.1357
  0
LINE
  8
0
 10
-51.0373
 20
62.1357
 11
-50.6917
 21
59.806
  0
LINE
  8
0
 10
-50.6917
 20
59.806
 11
-50.1195
 21
57.5213
  0
LINE
  8
0
 10
-50.1195
 20
57.5213
 11
-49.326
 21
55.3037
  0
LINE
  8
0
 10
-49.326
 20
55.3037
 11
-48.9353
 21
54.4775
  0
LINE
  8
0
 10
-48.9353
 20
54.4775
 11
-48.4224
 21
52.4301
  0
LINE
  8
0
 10
-48.4224
 20
52.4301
 11
-47.629
 21
50.2125
  0
LINE
  8
0
 10
-47.629
 20
50.2125
 11
-22.1731
 21
-9.1844
  0
LINE
  8
0
 10
-22.1731
 20
-9.1844
 11
-21.1661
 21
-11.3135
  0
LINE
  8
0
 10
-21.1661
 20
-11.3135
 11
-19.9552
 21
-13.3337
  0
LINE
  8
0
 10
-19.9552
 20
-13.3337
 11
-18.5522
 21
-15.2254
  0
LINE
  8
0
 10
-18.5522
 20
-15.2254
 11
-16.9706
 21
-16.9706
  0
LINE
  8
0
 10
-16.9706
 20
-16.9706
 11
-15.2254
 21
-18.5522
  0
LINE
  8
0
 10
-15.2254
 20
-18.5522
 11
-13.3337
 21
-19.9552
  0
LINE
  8
0
 10
-13.3337
 20
-19.9552
 11
-11.3135
 21
-21.1661
  0
LINE
  8
0
 10
-11.3135
 20
-21.1661
 11
-9.1844
 21
-22.1731
  0
LINE
  8
0
 10
-9.1844
 20
-22.1731
 11
-6.96682
 21
-22.9665
  0
LINE
  8
0
 10
-6.96682
 20
-22.9665
 11
-4.68216
 21
-23.5388
  0
LINE
  8
0
 10
-4.68216
 20
-23.5388
 11
-2.35243
 21
-23.8844
  0
LINE
  8
0
 10
-2.35243
 20
-23.8844
 11
-2.13163e-15
 21
-24
  0
LINE
  8
0
 10
-2.13163e-15
 20
-24
 11
2.35243
 21
-23.8844
  0
LINE
  8
0
 10
2.35243
 20
-23.8844
 11
4.68216
 21
-23.5388
  0
LINE
  8
0
 10
4.68216
 20
-23.5388
 11
6.96682
 21
-22.9665
  0
LINE
  8
0
 10
6.96682
 20
-22.9665
 11
9.1844
 21
-22.1731
  0
LINE
  8
0
 10
9.1844
 20
-22.1731
 11
11.3135
 21
-21.1661
  0
LINE
  8
0
 10
11.3135
 20
-21.1661
 11
13.3337
 21
-19.9552
  0
LINE
  8
0
 10
13.3337
 20
-19.9552
 11
15.2254
 21
-18.5522
  0
LINE
  8
0
 10
15.2254
 20
-18.5522
 11
16.9706
 21
-16.9706
  0
LINE
  8
0
 10
16.9706
 20
-16.9706
 11
18.5522
 21
-15.2254
  0
LINE
  8
0
 10
7.6127
 20
0.906196
 11
6.6668
 21
0.2047
  0
LINE
  8
0
 10
6.6668
 20
0.2047
 11
5.65674
 21
-0.400725
  0
LINE
  8
0
 10
5.65674
 20
-0.400725
 11
4.59217
 21
-0.904202
  0
LINE
  8
0
 10
4.59217
 20
-0.904202
 11
3.48337
 21
-1.30094
  0
LINE
  8
0
 10
3.48337
 20
-1.30094
 11
2.34104
 21
-1.58708
  0
LINE
  8
0
 10
2.34104
 20
-1.58708
 11
1.17623
 21
-1.75985
  0
LINE
  8
0
 10
1.17623
 20
-1.75985
 11
-1.33227e-16
 21
-1.81762
  0
LINE
  8
0
 10
-1.33227e-16
 20
-1.81762
 11
-1.17623
 21
-1.75985
  0
LINE
  8
0
 10
-1.17623
 20
-1.75985
 11
-2.34104
 21
-1.58708
  0
LINE
  8
0
 10
-2.34104
 20
-1.58708
 11
-3.48337
 21
-1.30094
  0
LINE
  8
0
 10
-3.48337
 20
-1.30094
 11
-4.59217
 21
-0.904202
  0
LINE
  8
0
 10
-4.59217
 20
-0.904202
 11
-5.65674
 21
-0.400725
  0
LINE
  8
0
 10
-5.65674
 20
-0.400725
 11
-6.6668
 21
0.2047
  0
LINE
  8
0
 10
-6.6668
 20
0.2047
 11
-7.6127
 21
0.906196
  0
LINE
  8
0
 10
-7.6127
 20
0.906196
 11
-8.48528
 21
1.69706
  0
LINE
  8
0
 10
-8.48528
 20
1.69706
 11
-9.27612
 21
2.56961
  0
LINE
  8
0
 10
-9.27612
 20
2.56961
 11
-9.97761
 21
3.51551
  0
LINE
  8
0
 10
-9.97761
 20
3.51551
 11
-10.583
 21
4.52557
  0
LINE
  8
0
 10
-10.583
 20
4.52557
 11
-11.0865
 21
5.59014
  0
LINE
  8
0
 10
-11.0865
 20
5.59014
 11
-11.4833
 21
6.69894
  0
LINE
  8
0
 10
-11.4833
 20
6.69894
 11
-11.7694
 21
7.84127
  0
LINE
  8
0
 10
-11.7694
 20
7.84127
 11
-11.9422
 21
9.00611
  0
LINE
  8
0
 10
-11.9422
 20
9.00611
 11
-12
 21
10.1823
  0
LINE
  8
0
 10
-12
 20
10.1823
 11
-11.9422
 21
11.3586
  0
LINE
  8
0
 10
-11.9422
 20
11.3586
 11
-11.7694
 21
12.5234
  0
LINE
  8
0
 10
-11.7694
 20
12.5234
 11
-11.4833
 21
13.6657
  0
LINE
  8
0
 10
-11.4833
 20
13.6657
 11
-11.0865
 21
14.7745
  0
LINE
  8
0
 10
-11.0865
 20
14.7745
 11
-10.5831
 21
15.8391
  0
LINE
  8
0
 10
-10.5831
 20
15.8391
 11
-9.97764
 21
16.8491
  0
LINE
  8
0
 10
-9.97764
 20
16.8491
 11
-9.27614
 21
17.795
  0
LINE
  8
0
 10
-9.27614
 20
17.795
 11
-8.48528
 21
18.6676
  0
LINE
  8
0
 10
-8.48528
 20
18.6676
 11
-7.61272
 21
19.4585
  0
LINE
  8
0
 10
-7.61272
 20
19.4585
 11
-6.66683
 21
20.1599
  0
LINE
  8
0
 10
-6.66683
 20
20.1599
 11
-5.65677
 21
20.7654
  0
LINE
  8
0
 10
-5.65677
 20
20.7654
 11
-4.5922
 21
21.2689
  0
LINE
  8
0
 10
-4.5922
 20
21.2689
 11
-3.4834
 21
21.6656
  0
LINE
  8
0
 10
-3.4834
 20
21.6656
 11
-2.34107
 21
21.9517
  0
LINE
  8
0
 10
-2.34107
 20
21.9517
 11
-1.17623
 21
22.1245
  0
LINE
  8
0
 10
-1.17623
 20
22.1245
 11
2.13163e-15
 21
22.1823
  0
LINE
  8
0
 10
2.13163e-15
 20
22.1823
 11
1.17623
 21
22.1245
  0
LINE
  8
0
 10
1.17623
 20
22.1245
 11
2.34107
 21
21.9517
  0
LINE
  8
0
 10
2.34107
 20
21.9517
 11
3.4834
 21
21.6656
  0
LINE
  8
0
 10
3.4834
 20
21.6656
 11
4.5922
 21
21.2689
  0
LINE
  8
0
 10
4.5922
 20
21.2689
 11
5.65677
 21
20.7654
  0
LINE
  8
0
 10
5.65677
 20
20.7654
 11
6.66683
 21
20.1599
  0
LINE
  8
0
 10
6.66683
 20
20.1599
 11
7.61272
 21
19.4585
  0
LINE
  8
0
 10
7.61272
 20
19.4585
 11
8.48528
 21
18.6676
  0
LINE
  8
0
 10
8.48528
 20
18.6676
 11
9.27614
 21
17.795
  0
LINE
  8
0
 10
9.27614
 20
17.795
 11
9.97764
 21
16.8491
  0
LINE
  8
0
 10
9.97764
 20
16.8491
 11
10.5831
 21
15.8391
  0
LINE
  8
0
 10
10.5831
 20
15.8391
 11
11.0865
 21
14.7745
  0
LINE
  8
0
 10
11.0865
 20
14.7745
 11
11.4833
 21
13.6657
  0
LINE
  8
0
 10
11.4833
 20
13.6657
 11
11.7694
 21
12.5234
  0
LINE
  8
0
 10
11.7694
 20
12.5234
 11
11.9422
 21
11.3586
  0
LINE
  8
0
 10
11.9422
 20
11.3586
 11
12
 21
10.1823
  0
LINE
  8
0
 10
12
 20
10.1823
 11
11.9422
 21
9.00611
  0
LINE
  8
0
 10
11.9422
 20
9.00611
 11
11.7694
 21
7.84127
  0
LINE
  8
0
 10
11.7694
 20
7.84127
 11
11.4833
 21
6.69894
  0
LINE
  8
0
 10
11.4833
 20
6.69894
 11
11.0865
 21
5.59014
  0
LINE
  8
0
 10
11.0865
 20
5.59014
 11
10.583
 21
4.52557
  0
LINE
  8
0
 10
10.583
 20
4.52557
 11
9.97761
 21
3.51551
  0
LINE
  8
0
 10
9.97761
 20
3.51551
 11
9.27612
 21
2.56961
  0
LINE
  8
0
 10
9.27612
 20
2.56961
 11
8.48526
 21
1.69703
  0
LINE
  8
0
 10
8.48526
 20
1.69703
 11
7.6127
 21
0.906196
  0
ENDSEC
  0
SECTION
  2
OBJECTS
  0
DICTIONARY
  0
ENDSEC
  0
EOF
