<?xml version="1.0" standalone="no"?>
<!DOCTYPE svg PUBLIC "-//W3C//DTD SVG 1.1//EN" "http://www.w3.org/Graphics/SVG/1.1/DTD/svg11.dtd">
<svg width="376" height="376" viewBox="-80 -296 376 376" xmlns="http://www.w3.org/2000/svg" version="1.1">
<title>OpenSCAD Model</title>
<path d="
M 7.84131,79.6147 L 15.6072,78.4628 L 23.2227,76.5552 L 30.6146,73.9103 L 230.615,-6.0896 L 237.712,-9.44629
 L 243.746,-13.0632 L 246.615,-14.0896 L 253.712,-17.4463 L 260.446,-21.4824 L 266.751,-26.1591 L 272.568,-31.4314
 L 277.841,-37.2485 L 282.517,-43.5543 L 286.554,-50.2882 L 289.91,-57.3853 L 292.555,-64.7772 L 294.463,-72.3927
 L 295.615,-80.1586 L 296,-88 L 295.615,-95.8413 L 294.463,-103.607 L 292.555,-111.223 L 289.91,-118.615
 L 286.554,-125.712 L 282.517,-132.446 L 277.841,-138.751 L 272.568,-144.568 L 266.751,-149.841 L 260.446,-154.517
 L 253.712,-158.554 L 246.615,-161.91 L 239.223,-164.555 L 231.607,-166.463 L 225.815,-167.322 L 167.322,-225.815
 L 166.463,-231.607 L 164.555,-239.223 L 161.91,-246.615 L 158.554,-253.712 L 154.517,-260.446 L 149.841,-266.751
 L 144.568,-272.568 L 138.751,-277.841 L 132.446,-282.517 L 125.712,-286.554 L 118.615,-289.91 L 111.223,-292.555
 L 103.607,-294.463 L 95.8413,-295.615 L 88,-296 L 80.1586,-295.615 L 72.3927,-294.463 L 64.7772,-292.555
 L 57.3853,-289.91 L 50.2882,-286.554 L 43.5543,-282.517 L 37.2485,-277.841 L 31.4314,-272.568 L 26.1591,-266.751
 L 21.4824,-260.446 L 17.4463,-253.712 L 14.0896,-246.615 L 13.0632,-243.746 L 9.44629,-237.712 L 6.0896,-230.615
 L -73.9103,-30.6146 L -76.5552,-23.2227 L -78.4628,-15.6072 L -79.6147,-7.84131 L -80,-0 L -79.6147,7.84131
 L -78.4628,15.6072 L -76.5552,23.2227 L -73.9103,30.6146 L -70.5536,37.7117 L -66.5175,44.4456 L -61.8408,50.7513
 L -56.5685,56.5685 L -50.7513,61.8408 L -44.4456,66.5175 L -37.7117,70.5536 L -30.6146,73.9103 L -23.2227,76.5552
 L -15.6072,78.4628 L -7.84131,79.6147 L 0,80 z
M 20.0792,15.8074 L 16.1963,15.2313 L 12.3885,14.2776 L 8.69263,12.9551 L 5.14404,11.2767 L 1.7771,9.25867
 L -1.37561,6.92041 L -4.28418,4.28418 L -6.92041,1.37561 L -9.25867,-1.7771 L -11.2767,-5.14404 L -12.9551,-8.69263
 L -14.2776,-12.3885 L -15.2313,-16.1963 L -15.8074,-20.0792 L -16,-24 L -15.8074,-27.9207 L -15.2313,-31.8036
 L -14.2776,-35.6113 L -12.9551,-39.3073 L -11.2767,-42.8558 L -9.25867,-46.2228 L -6.92041,-49.3756 L -4.28418,-52.2842
 L -1.37561,-54.9204 L 1.7771,-57.2587 L 5.14404,-59.2767 L 8.69263,-60.9551 L 12.3885,-62.2776 L 16.1963,-63.2313
 L 20.0792,-63.8074 L 24,-64 L 27.9207,-63.8074 L 31.8036,-63.2313 L 35.6113,-62.2776 L 39.3073,-60.9551
 L 42.8558,-59.2767 L 46.2228,-57.2587 L 49.3756,-54.9204 L 52.2842,-52.2842 L 54.9204,-49.3756 L 57.2587,-46.2228
 L 59.2767,-42.8558 L 60.9551,-39.3073 L 62.2776,-35.6113 L 63.2313,-31.8036 L 63.8074,-27.9207 L 64,-24
 L 63.8074,-20.0792 L 63.2313,-16.1963 L 62.2776,-12.3885 L 60.9551,-8.69263 L 59.2767,-5.14404 L 57.2587,-1.7771
 L 54.9204,1.37561 L 52.2842,4.28418 L 49.3756,6.92041 L 46.2228,9.25867 L 42.8558,11.2767 L 39.3073,12.9551
 L 35.6113,14.2776 L 31.8036,15.2313 L 27.9207,15.8074 L 23.9999,16 z
" stroke="black" fill="lightgray" stroke-width="0.5"/></svg>
