<?xml version="1.0" standalone="no"?>
<!DOCTYPE svg PUBLIC "-//W3C//DTD SVG 1.1//EN" "http://www.w3.org/Graphics/SVG/1.1/DTD/svg11.dtd">
<svg width="40" height="60" viewBox="0 -60 40 60" xmlns="http://www.w3.org/2000/svg" version="1.1">
<title>OpenSCAD Model</title>
<path d="
M 40,-60 L 0,-60 L 0,-0 L 40,-0 z
M 14.853,-53.5072 L 14.7074,-53.5288 L 14.5646,-53.5646 L 14.426,-53.6142 L 14.2929,-53.6771 L 14.1666,-53.7528
 L 14.0484,-53.8405 L 13.9393,-53.9393 L 13.8405,-54.0484 L 13.7528,-54.1666 L 13.6771,-54.2929 L 13.6142,-54.426
 L 13.5646,-54.5646 L 13.5288,-54.7074 L 13.5072,-54.853 L 13.5,-55 L 13.5072,-55.147 L 13.5288,-55.2926
 L 13.5646,-55.4354 L 13.6142,-55.574 L 13.6771,-55.7071 L 13.7528,-55.8333 L 13.8405,-55.9516 L 13.9393,-56.0607
 L 14.0484,-56.1595 L 14.1666,-56.2472 L 14.2929,-56.3229 L 14.426,-56.3858 L 14.5646,-56.4354 L 14.7074,-56.4712
 L 14.853,-56.4928 L 15,-56.5 L 15.147,-56.4928 L 15.2926,-56.4712 L 15.4354,-56.4354 L 15.574,-56.3858
 L 15.7071,-56.3229 L 15.8333,-56.2472 L 15.9516,-56.1595 L 16.0607,-56.0607 L 16.1595,-55.9516 L 16.2472,-55.8333
 L 16.3229,-55.7071 L 16.3858,-55.574 L 16.4354,-55.4354 L 16.4712,-55.2926 L 16.4928,-55.147 L 16.5,-55
 L 16.4928,-54.853 L 16.4712,-54.7074 L 16.4354,-54.5646 L 16.3858,-54.426 L 16.3229,-54.2929 L 16.2472,-54.1666
 L 16.1595,-54.0484 L 16.0607,-53.9393 L 15.9516,-53.8405 L 15.8333,-53.7528 L 15.7071,-53.6771 L 15.574,-53.6142
 L 15.4354,-53.5646 L 15.2926,-53.5288 L 15.147,-53.5072 L 15,-53.5 z
M 24.853,-53.5072 L 24.7074,-53.5288 L 24.5646,-53.5646 L 24.426,-53.6142 L 24.2929,-53.6771 L 24.1666,-53.7528
 L 24.0484,-53.8405 L 23.9393,-53.9393 L 23.8405,-54.0484 L 23.7528,-54.1666 L 23.6771,-54.2929 L 23.6142,-54.426
 L 23.5646,-54.5646 L 23.5288,-54.7074 L 23.5072,-54.853 L 23.5,-55 L 23.5072,-55.147 L 23.5288,-55.2926
 L 23.5646,-55.4354 L 23.6142,-55.574 L 23.6771,-55.7071 L 23.7528,-55.8333 L 23.8405,-55.9516 L 23.9393,-56.0607
 L 24.0484,-56.1595 L 24.1666,-56.2472 L 24.2929,-56.3229 L 24.426,-56.3858 L 24.5646,-56.4354 L 24.7074,-56.4712
 L 24.853,-56.4928 L 25,-56.5 L 25.147,-56.4928 L 25.2926,-56.4712 L 25.4354,-56.4354 L 25.574,-56.3858
 L 25.7071,-56.3229 L 25.8333,-56.2472 L 25.9516,-56.1595 L 26.0607,-56.0607 L 26.1595,-55.9516 L 26.2472,-55.8333
 L 26.3229,-55.7071 L 26.3858,-55.574 L 26.4354,-55.4354 L 26.4712,-55.2926 L 26.4928,-55.147 L 26.5,-55
 L 26.4928,-54.853 L 26.4712,-54.7074 L 26.4354,-54.5646 L 26.3858,-54.426 L 26.3229,-54.2929 L 26.2472,-54.1666
 L 26.1595,-54.0484 L 26.0607,-53.9393 L 25.9516,-53.8405 L 25.8333,-53.7528 L 25.7071,-53.6771 L 25.574,-53.6142
 L 25.4354,-53.5646 L 25.2926,-53.5288 L 25.147,-53.5072 L 25,-53.5 z
M 10,-10 L 10,-50 L 17.5,-50 L 17.5,-54.5 L 22.5,-54.5 L 22.5,-50
 L 30,-50 L 30,-10 z
M 14.853,-3.50722 L 14.7074,-3.52881 L 14.5646,-3.56458 L 14.426,-3.61417 L 14.2929,-3.67711 L 14.1666,-3.75279
 L 14.0484,-3.84047 L 13.9393,-3.93933 L 13.8405,-4.0484 L 13.7528,-4.16664 L 13.6771,-4.29289 L 13.6142,-4.42596
 L 13.5646,-4.56456 L 13.5288,-4.70735 L 13.5072,-4.85297 L 13.5,-5 L 13.5072,-5.14702 L 13.5288,-5.29263
 L 13.5646,-5.43542 L 13.6142,-5.57402 L 13.6771,-5.70709 L 13.7528,-5.83334 L 13.8405,-5.95158 L 13.9393,-6.06065
 L 14.0484,-6.15952 L 14.1666,-6.24719 L 14.2929,-6.32288 L 14.426,-6.38582 L 14.5646,-6.43541 L 14.7074,-6.47118
 L 14.853,-6.49277 L 15,-6.5 L 15.147,-6.49277 L 15.2926,-6.47118 L 15.4354,-6.43541 L 15.574,-6.38582
 L 15.7071,-6.32288 L 15.8333,-6.24719 L 15.9516,-6.15952 L 16.0607,-6.06065 L 16.1595,-5.95158 L 16.2472,-5.83334
 L 16.3229,-5.70709 L 16.3858,-5.57402 L 16.4354,-5.43542 L 16.4712,-5.29263 L 16.4928,-5.14702 L 16.5,-5
 L 16.4928,-4.85297 L 16.4712,-4.70735 L 16.4354,-4.56456 L 16.3858,-4.42596 L 16.3229,-4.29289 L 16.2472,-4.16664
 L 16.1595,-4.0484 L 16.0607,-3.93933 L 15.9516,-3.84047 L 15.8333,-3.75279 L 15.7071,-3.67711 L 15.574,-3.61417
 L 15.4354,-3.56458 L 15.2926,-3.52881 L 15.147,-3.50722 L 15,-3.5 z
M 24.853,-3.50722 L 24.7074,-3.52881 L 24.5646,-3.56458 L 24.426,-3.61417 L 24.2929,-3.67711 L 24.1666,-3.75279
 L 24.0484,-3.84047 L 23.9393,-3.93933 L 23.8405,-4.0484 L 23.7528,-4.16664 L 23.6771,-4.29289 L 23.6142,-4.42596
 L 23.5646,-4.56456 L 23.5288,-4.70735 L 23.5072,-4.85297 L 23.5,-5 L 23.5072,-5.14702 L 23.5288,-5.29263
 L 23.5646,-5.43542 L 23.6142,-5.57402 L 23.6771,-5.70709 L 23.7528,-5.83334 L 23.8405,-5.95158 L 23.9393,-6.06065
 L 24.0484,-6.15952 L 24.1666,-6.24719 L 24.2929,-6.32288 L 24.426,-6.38582 L 24.5646,-6.43541 L 24.7074,-6.47118
 L 24.853,-6.49277 L 25,-6.5 L 25.147,-6.49277 L 25.2926,-6.47118 L 25.4354,-6.43541 L 25.574,-6.38582
 L 25.7071,-6.32288 L 25.8333,-6.24719 L 25.9516,-6.15952 L 26.0607,-6.06065 L 26.1595,-5.95158 L 26.2472,-5.83334
 L 26.3229,-5.70709 L 26.3858,-5.57402 L 26.4354,-5.43542 L 26.4712,-5.29263 L 26.4928,-5.14702 L 26.5,-5
 L 26.4928,-4.85297 L 26.4712,-4.70735 L 26.4354,-4.56456 L 26.3858,-4.42596 L 26.3229,-4.29289 L 26.2472,-4.16664
 L 26.1595,-4.0484 L 26.0607,-3.93933 L 25.9516,-3.84047 L 25.8333,-3.75279 L 25.7071,-3.67711 L 25.574,-3.61417
 L 25.4354,-3.56458 L 25.2926,-3.52881 L 25.147,-3.50722 L 25,-3.5 z
" stroke="black" fill="lightgray" stroke-width="0.5"/></svg>
