  0
SECTION
  2
BLOCKS
  0
ENDSEC
  0
SECTION
  2
ENTITIES
  0
LINE
  8
0
 10
40
 20
60
 11
0
 21
60
  0
LINE
  8
0
 10
0
 20
60
 11
0
 21
0
  0
LINE
  8
0
 10
0
 20
0
 11
40
 21
0
  0
LINE
  8
0
 10
40
 20
0
 11
40
 21
60
  0
LINE
  8
0
 10
14.853
 20
53.5072
 11
14.7074
 21
53.5288
  0
LINE
  8
0
 10
14.7074
 20
53.5288
 11
14.5646
 21
53.5646
  0
LINE
  8
0
 10
14.5646
 20
53.5646
 11
14.426
 21
53.6142
  0
LINE
  8
0
 10
14.426
 20
53.6142
 11
14.2929
 21
53.6771
  0
LINE
  8
0
 10
14.2929
 20
53.6771
 11
14.1666
 21
53.7528
  0
LINE
  8
0
 10
14.1666
 20
53.7528
 11
14.0484
 21
53.8405
  0
LINE
  8
0
 10
14.0484
 20
53.8405
 11
13.9393
 21
53.9393
  0
LINE
  8
0
 10
13.9393
 20
53.9393
 11
13.8405
 21
54.0484
  0
LINE
  8
0
 10
13.8405
 20
54.0484
 11
13.7528
 21
54.1666
  0
LINE
  8
0
 10
13.7528
 20
54.1666
 11
13.6771
 21
54.2929
  0
LINE
  8
0
 10
13.6771
 20
54.2929
 11
13.6142
 21
54.426
  0
LINE
  8
0
 10
13.6142
 20
54.426
 11
13.5646
 21
54.5646
  0
LINE
  8
0
 10
13.5646
 20
54.5646
 11
13.5288
 21
54.7074
  0
LINE
  8
0
 10
13.5288
 20
54.7074
 11
13.5072
 21
54.853
  0
LINE
  8
0
 10
13.5072
 20
54.853
 11
13.5
 21
55
  0
LINE
  8
0
 10
13.5
 20
55
 11
13.5072
 21
55.147
  0
LINE
  8
0
 10
13.5072
 20
55.147
 11
13.5288
 21
55.2926
  0
LINE
  8
0
 10
13.5288
 20
55.2926
 11
13.5646
 21
55.4354
  0
LINE
  8
0
 10
13.5646
 20
55.4354
 11
13.6142
 21
55.574
  0
LINE
  8
0
 10
13.6142
 20
55.574
 11
13.6771
 21
55.7071
  0
LINE
  8
0
 10
13.6771
 20
55.7071
 11
13.7528
 21
55.8333
  0
LINE
  8
0
 10
13.7528
 20
55.8333
 11
13.8405
 21
55.9516
  0
LINE
  8
0
 10
13.8405
 20
55.9516
 11
13.9393
 21
56.0607
  0
LINE
  8
0
 10
13.9393
 20
56.0607
 11
14.0484
 21
56.1595
  0
LINE
  8
0
 10
14.0484
 20
56.1595
 11
14.1666
 21
56.2472
  0
LINE
  8
0
 10
14.1666
 20
56.2472
 11
14.2929
 21
56.3229
  0
LINE
  8
0
 10
14.2929
 20
56.3229
 11
14.426
 21
56.3858
  0
LINE
  8
0
 10
14.426
 20
56.3858
 11
14.5646
 21
56.4354
  0
LINE
  8
0
 10
14.5646
 20
56.4354
 11
14.7074
 21
56.4712
  0
LINE
  8
0
 10
14.7074
 20
56.4712
 11
14.853
 21
56.4928
  0
LINE
  8
0
 10
14.853
 20
56.4928
 11
15
 21
56.5
  0
LINE
  8
0
 10
15
 20
56.5
 11
15.147
 21
56.4928
  0
LINE
  8
0
 10
15.147
 20
56.4928
 11
15.2926
 21
56.4712
  0
LINE
  8
0
 10
15.2926
 20
56.4712
 11
15.4354
 21
56.4354
  0
LINE
  8
0
 10
15.4354
 20
56.4354
 11
15.574
 21
56.3858
  0
LINE
  8
0
 10
15.574
 20
56.3858
 11
15.7071
 21
56.3229
  0
LINE
  8
0
 10
15.7071
 20
56.3229
 11
15.8333
 21
56.2472
  0
LINE
  8
0
 10
15.8333
 20
56.2472
 11
15.9516
 21
56.1595
  0
LINE
  8
0
 10
15.9516
 20
56.1595
 11
16.0607
 21
56.0607
  0
LINE
  8
0
 10
16.0607
 20
56.0607
 11
16.1595
 21
55.9516
  0
LINE
  8
0
 10
16.1595
 20
55.9516
 11
16.2472
 21
55.8333
  0
LINE
  8
0
 10
16.2472
 20
55.8333
 11
16.3229
 21
55.7071
  0
LINE
  8
0
 10
16.3229
 20
55.7071
 11
16.3858
 21
55.574
  0
LINE
  8
0
 10
16.3858
 20
55.574
 11
16.4354
 21
55.4354
  0
LINE
  8
0
 10
16.4354
 20
55.4354
 11
16.4712
 21
55.2926
  0
LINE
  8
0
 10
16.4712
 20
55.2926
 11
16.4928
 21
55.147
  0
LINE
  8
0
 10
16.4928
 20
55.147
 11
16.5
 21
55
  0
LINE
  8
0
 10
16.5
 20
55
 11
16.4928
 21
54.853
  0
LINE
  8
0
 10
16.4928
 20
54.853
 11
16.4712
 21
54.7074
  0
LINE
  8
0
 10
16.4712
 20
54.7074
 11
16.4354
 21
54.5646
  0
LINE
  8
0
 10
16.4354
 20
54.5646
 11
16.3858
 21
54.426
  0
LINE
  8
0
 10
16.3858
 20
54.426
 11
16.3229
 21
54.2929
  0
LINE
  8
0
 10
16.3229
 20
54.2929
 11
16.2472
 21
54.1666
  0
LINE
  8
0
 10
16.2472
 20
54.1666
 11
16.1595
 21
54.0484
  0
LINE
  8
0
 10
16.1595
 20
54.0484
 11
16.0607
 21
53.9393
  0
LINE
  8
0
 10
16.0607
 20
53.9393
 11
15.9516
 21
53.8405
  0
LINE
  8
0
 10
15.9516
 20
53.8405
 11
15.8333
 21
53.7528
  0
LINE
  8
0
 10
15.8333
 20
53.7528
 11
15.7071
 21
53.6771
  0
LINE
  8
0
 10
15.7071
 20
53.6771
 11
15.574
 21
53.6142
  0
LINE
  8
0
 10
15.574
 20
53.6142
 11
15.4354
 21
53.5646
  0
LINE
  8
0
 10
15.4354
 20
53.5646
 11
15.2926
 21
53.5288
  0
LINE
  8
0
 10
15.2926
 20
53.5288
 11
15.147
 21
53.5072
  0
LINE
  8
0
 10
15.147
 20
53.5072
 11
15
 21
53.5
  0
LINE
  8
0
 10
15
 20
53.5
 11
14.853
 21
53.5072
  0
LINE
  8
0
 10
24.853
 20
53.5072
 11
24.7074
 21
53.5288
  0
LINE
  8
0
 10
24.7074
 20
53.5288
 11
24.5646
 21
53.5646
  0
LINE
  8
0
 10
24.5646
 20
53.5646
 11
24.426
 21
53.6142
  0
LINE
  8
0
 10
24.426
 20
53.6142
 11
24.2929
 21
53.6771
  0
LINE
  8
0
 10
24.2929
 20
53.6771
 11
24.1666
 21
53.7528
  0
LINE
  8
0
 10
24.1666
 20
53.7528
 11
24.0484
 21
53.8405
  0
LINE
  8
0
 10
24.0484
 20
53.8405
 11
23.9393
 21
53.9393
  0
LINE
  8
0
 10
23.9393
 20
53.9393
 11
23.8405
 21
54.0484
  0
LINE
  8
0
 10
23.8405
 20
54.0484
 11
23.7528
 21
54.1666
  0
LINE
  8
0
 10
23.7528
 20
54.1666
 11
23.6771
 21
54.2929
  0
LINE
  8
0
 10
23.6771
 20
54.2929
 11
23.6142
 21
54.426
  0
LINE
  8
0
 10
23.6142
 20
54.426
 11
23.5646
 21
54.5646
  0
LINE
  8
0
 10
23.5646
 20
54.5646
 11
23.5288
 21
54.7074
  0
LINE
  8
0
 10
23.5288
 20
54.7074
 11
23.5072
 21
54.853
  0
LINE
  8
0
 10
23.5072
 20
54.853
 11
23.5
 21
55
  0
LINE
  8
0
 10
23.5
 20
55
 11
23.5072
 21
55.147
  0
LINE
  8
0
 10
23.5072
 20
55.147
 11
23.5288
 21
55.2926
  0
LINE
  8
0
 10
23.5288
 20
55.2926
 11
23.5646
 21
55.4354
  0
LINE
  8
0
 10
23.5646
 20
55.4354
 11
23.6142
 21
55.574
  0
LINE
  8
0
 10
23.6142
 20
55.574
 11
23.6771
 21
55.7071
  0
LINE
  8
0
 10
23.6771
 20
55.7071
 11
23.7528
 21
55.8333
  0
LINE
  8
0
 10
23.7528
 20
55.8333
 11
23.8405
 21
55.9516
  0
LINE
  8
0
 10
23.8405
 20
55.9516
 11
23.9393
 21
56.0607
  0
LINE
  8
0
 10
23.9393
 20
56.0607
 11
24.0484
 21
56.1595
  0
LINE
  8
0
 10
24.0484
 20
56.1595
 11
24.1666
 21
56.2472
  0
LINE
  8
0
 10
24.1666
 20
56.2472
 11
24.2929
 21
56.3229
  0
LINE
  8
0
 10
24.2929
 20
56.3229
 11
24.426
 21
56.3858
  0
LINE
  8
0
 10
24.426
 20
56.3858
 11
24.5646
 21
56.4354
  0
LINE
  8
0
 10
24.5646
 20
56.4354
 11
24.7074
 21
56.4712
  0
LINE
  8
0
 10
24.7074
 20
56.4712
 11
24.853
 21
56.4928
  0
LINE
  8
0
 10
24.853
 20
56.4928
 11
25
 21
56.5
  0
LINE
  8
0
 10
25
 20
56.5
 11
25.147
 21
56.4928
  0
LINE
  8
0
 10
25.147
 20
56.4928
 11
25.2926
 21
56.4712
  0
LINE
  8
0
 10
25.2926
 20
56.4712
 11
25.4354
 21
56.4354
  0
LINE
  8
0
 10
25.4354
 20
56.4354
 11
25.574
 21
56.3858
  0
LINE
  8
0
 10
25.574
 20
56.3858
 11
25.7071
 21
56.3229
  0
LINE
  8
0
 10
25.7071
 20
56.3229
 11
25.8333
 21
56.2472
  0
LINE
  8
0
 10
25.8333
 20
56.2472
 11
25.9516
 21
56.1595
  0
LINE
  8
0
 10
25.9516
 20
56.1595
 11
26.0607
 21
56.0607
  0
LINE
  8
0
 10
26.0607
 20
56.0607
 11
26.1595
 21
55.9516
  0
LINE
  8
0
 10
26.1595
 20
55.9516
 11
26.2472
 21
55.8333
  0
LINE
  8
0
 10
26.2472
 20
55.8333
 11
26.3229
 21
55.7071
  0
LINE
  8
0
 10
26.3229
 20
55.7071
 11
26.3858
 21
55.574
  0
LINE
  8
0
 10
26.3858
 20
55.574
 11
26.4354
 21
55.4354
  0
LINE
  8
0
 10
26.4354
 20
55.4354
 11
26.4712
 21
55.2926
  0
LINE
  8
0
 10
26.4712
 20
55.2926
 11
26.4928
 21
55.147
  0
LINE
  8
0
 10
26.4928
 20
55.147
 11
26.5
 21
55
  0
LINE
  8
0
 10
26.5
 20
55
 11
26.4928
 21
54.853
  0
LINE
  8
0
 10
26.4928
 20
54.853
 11
26.4712
 21
54.7074
  0
LINE
  8
0
 10
26.4712
 20
54.7074
 11
26.4354
 21
54.5646
  0
LINE
  8
0
 10
26.4354
 20
54.5646
 11
26.3858
 21
54.426
  0
LINE
  8
0
 10
26.3858
 20
54.426
 11
26.3229
 21
54.2929
  0
LINE
  8
0
 10
26.3229
 20
54.2929
 11
26.2472
 21
54.1666
  0
LINE
  8
0
 10
26.2472
 20
54.1666
 11
26.1595
 21
54.0484
  0
LINE
  8
0
 10
26.1595
 20
54.0484
 11
26.0607
 21
53.9393
  0
LINE
  8
0
 10
26.0607
 20
53.9393
 11
25.9516
 21
53.8405
  0
LINE
  8
0
 10
25.9516
 20
53.8405
 11
25.8333
 21
53.7528
  0
LINE
  8
0
 10
25.8333
 20
53.7528
 11
25.7071
 21
53.6771
  0
LINE
  8
0
 10
25.7071
 20
53.6771
 11
25.574
 21
53.6142
  0
LINE
  8
0
 10
25.574
 20
53.6142
 11
25.4354
 21
53.5646
  0
LINE
  8
0
 10
25.4354
 20
53.5646
 11
25.2926
 21
53.5288
  0
LINE
  8
0
 10
25.2926
 20
53.5288
 11
25.147
 21
53.5072
  0
LINE
  8
0
 10
25.147
 20
53.5072
 11
25
 21
53.5
  0
LINE
  8
0
 10
25
 20
53.5
 11
24.853
 21
53.5072
  0
LINE
  8
0
 10
10
 20
10
 11
10
 21
50
  0
LINE
  8
0
 10
10
 20
50
 11
17.5
 21
50
  0
LINE
  8
0
 10
17.5
 20
50
 11
17.5
 21
54.5
  0
LINE
  8
0
 10
17.5
 20
54.5
 11
22.5
 21
54.5
  0
LINE
  8
0
 10
22.5
 20
54.5
 11
22.5
 21
50
  0
LINE
  8
0
 10
22.5
 20
50
 11
30
 21
50
  0
LINE
  8
0
 10
30
 20
50
 11
30
 21
10
  0
LINE
  8
0
 10
30
 20
10
 11
10
 21
10
  0
LINE
  8
0
 10
14.853
 20
3.50722
 11
14.7074
 21
3.52881
  0
LINE
  8
0
 10
14.7074
 20
3.52881
 11
14.5646
 21
3.56458
  0
LINE
  8
0
 10
14.5646
 20
3.56458
 11
14.426
 21
3.61417
  0
LINE
  8
0
 10
14.426
 20
3.61417
 11
14.2929
 21
3.67711
  0
LINE
  8
0
 10
14.2929
 20
3.67711
 11
14.1666
 21
3.75279
  0
LINE
  8
0
 10
14.1666
 20
3.75279
 11
14.0484
 21
3.84047
  0
LINE
  8
0
 10
14.0484
 20
3.84047
 11
13.9393
 21
3.93933
  0
LINE
  8
0
 10
13.9393
 20
3.93933
 11
13.8405
 21
4.0484
  0
LINE
  8
0
 10
13.8405
 20
4.0484
 11
13.7528
 21
4.16664
  0
LINE
  8
0
 10
13.7528
 20
4.16664
 11
13.6771
 21
4.29289
  0
LINE
  8
0
 10
13.6771
 20
4.29289
 11
13.6142
 21
4.42596
  0
LINE
  8
0
 10
13.6142
 20
4.42596
 11
13.5646
 21
4.56456
  0
LINE
  8
0
 10
13.5646
 20
4.56456
 11
13.5288
 21
4.70735
  0
LINE
  8
0
 10
13.5288
 20
4.70735
 11
13.5072
 21
4.85297
  0
LINE
  8
0
 10
13.5072
 20
4.85297
 11
13.5
 21
5
  0
LINE
  8
0
 10
13.5
 20
5
 11
13.5072
 21
5.14702
  0
LINE
  8
0
 10
13.5072
 20
5.14702
 11
13.5288
 21
5.29263
  0
LINE
  8
0
 10
13.5288
 20
5.29263
 11
13.5646
 21
5.43542
  0
LINE
  8
0
 10
13.5646
 20
5.43542
 11
13.6142
 21
5.57402
  0
LINE
  8
0
 10
13.6142
 20
5.57402
 11
13.6771
 21
5.70709
  0
LINE
  8
0
 10
13.6771
 20
5.70709
 11
13.7528
 21
5.83334
  0
LINE
  8
0
 10
13.7528
 20
5.83334
 11
13.8405
 21
5.95158
  0
LINE
  8
0
 10
13.8405
 20
5.95158
 11
13.9393
 21
6.06065
  0
LINE
  8
0
 10
13.9393
 20
6.06065
 11
14.0484
 21
6.15952
  0
LINE
  8
0
 10
14.0484
 20
6.15952
 11
14.1666
 21
6.24719
  0
LINE
  8
0
 10
14.1666
 20
6.24719
 11
14.2929
 21
6.32288
  0
LINE
  8
0
 10
14.2929
 20
6.32288
 11
14.426
 21
6.38582
  0
LINE
  8
0
 10
14.426
 20
6.38582
 11
14.5646
 21
6.43541
  0
LINE
  8
0
 10
14.5646
 20
6.43541
 11
14.7074
 21
6.47118
  0
LINE
  8
0
 10
14.7074
 20
6.47118
 11
14.853
 21
6.49277
  0
LINE
  8
0
 10
14.853
 20
6.49277
 11
15
 21
6.5
  0
LINE
  8
0
 10
15
 20
6.5
 11
15.147
 21
6.49277
  0
LINE
  8
0
 10
15.147
 20
6.49277
 11
15.2926
 21
6.47118
  0
LINE
  8
0
 10
15.2926
 20
6.47118
 11
15.4354
 21
6.43541
  0
LINE
  8
0
 10
15.4354
 20
6.43541
 11
15.574
 21
6.38582
  0
LINE
  8
0
 10
15.574
 20
6.38582
 11
15.7071
 21
6.32288
  0
LINE
  8
0
 10
15.7071
 20
6.32288
 11
15.8333
 21
6.24719
  0
LINE
  8
0
 10
15.8333
 20
6.24719
 11
15.9516
 21
6.15952
  0
LINE
  8
0
 10
15.9516
 20
6.15952
 11
16.0607
 21
6.06065
  0
LINE
  8
0
 10
16.0607
 20
6.06065
 11
16.1595
 21
5.95158
  0
LINE
  8
0
 10
16.1595
 20
5.95158
 11
16.2472
 21
5.83334
  0
LINE
  8
0
 10
16.2472
 20
5.83334
 11
16.3229
 21
5.70709
  0
LINE
  8
0
 10
16.3229
 20
5.70709
 11
16.3858
 21
5.57402
  0
LINE
  8
0
 10
16.3858
 20
5.57402
 11
16.4354
 21
5.43542
  0
LINE
  8
0
 10
16.4354
 20
5.43542
 11
16.4712
 21
5.29263
  0
LINE
  8
0
 10
16.4712
 20
5.29263
 11
16.4928
 21
5.14702
  0
LINE
  8
0
 10
16.4928
 20
5.14702
 11
16.5
 21
5
  0
LINE
  8
0
 10
16.5
 20
5
 11
16.4928
 21
4.85297
  0
LINE
  8
0
 10
16.4928
 20
4.85297
 11
16.4712
 21
4.70735
  0
LINE
  8
0
 10
16.4712
 20
4.70735
 11
16.4354
 21
4.56456
  0
LINE
  8
0
 10
16.4354
 20
4.56456
 11
16.3858
 21
4.42596
  0
LINE
  8
0
 10
16.3858
 20
4.42596
 11
16.3229
 21
4.29289
  0
LINE
  8
0
 10
16.3229
 20
4.29289
 11
16.2472
 21
4.16664
  0
LINE
  8
0
 10
16.2472
 20
4.16664
 11
16.1595
 21
4.0484
  0
LINE
  8
0
 10
16.1595
 20
4.0484
 11
16.0607
 21
3.93933
  0
LINE
  8
0
 10
16.0607
 20
3.93933
 11
15.9516
 21
3.84047
  0
LINE
  8
0
 10
15.9516
 20
3.84047
 11
15.8333
 21
3.75279
  0
LINE
  8
0
 10
15.8333
 20
3.75279
 11
15.7071
 21
3.67711
  0
LINE
  8
0
 10
15.7071
 20
3.67711
 11
15.574
 21
3.61417
  0
LINE
  8
0
 10
15.574
 20
3.61417
 11
15.4354
 21
3.56458
  0
LINE
  8
0
 10
15.4354
 20
3.56458
 11
15.2926
 21
3.52881
  0
LINE
  8
0
 10
15.2926
 20
3.52881
 11
15.147
 21
3.50722
  0
LINE
  8
0
 10
15.147
 20
3.50722
 11
15
 21
3.5
  0
LINE
  8
0
 10
15
 20
3.5
 11
14.853
 21
3.50722
  0
LINE
  8
0
 10
24.853
 20
3.50722
 11
24.7074
 21
3.52881
  0
LINE
  8
0
 10
24.7074
 20
3.52881
 11
24.5646
 21
3.56458
  0
LINE
  8
0
 10
24.5646
 20
3.56458
 11
24.426
 21
3.61417
  0
LINE
  8
0
 10
24.426
 20
3.61417
 11
24.2929
 21
3.67711
  0
LINE
  8
0
 10
24.2929
 20
3.67711
 11
24.1666
 21
3.75279
  0
LINE
  8
0
 10
24.1666
 20
3.75279
 11
24.0484
 21
3.84047
  0
LINE
  8
0
 10
24.0484
 20
3.84047
 11
23.9393
 21
3.93933
  0
LINE
  8
0
 10
23.9393
 20
3.93933
 11
23.8405
 21
4.0484
  0
LINE
  8
0
 10
23.8405
 20
4.0484
 11
23.7528
 21
4.16664
  0
LINE
  8
0
 10
23.7528
 20
4.16664
 11
23.6771
 21
4.29289
  0
LINE
  8
0
 10
23.6771
 20
4.29289
 11
23.6142
 21
4.42596
  0
LINE
  8
0
 10
23.6142
 20
4.42596
 11
23.5646
 21
4.56456
  0
LINE
  8
0
 10
23.5646
 20
4.56456
 11
23.5288
 21
4.70735
  0
LINE
  8
0
 10
23.5288
 20
4.70735
 11
23.5072
 21
4.85297
  0
LINE
  8
0
 10
23.5072
 20
4.85297
 11
23.5
 21
5
  0
LINE
  8
0
 10
23.5
 20
5
 11
23.5072
 21
5.14702
  0
LINE
  8
0
 10
23.5072
 20
5.14702
 11
23.5288
 21
5.29263
  0
LINE
  8
0
 10
23.5288
 20
5.29263
 11
23.5646
 21
5.43542
  0
LINE
  8
0
 10
23.5646
 20
5.43542
 11
23.6142
 21
5.57402
  0
LINE
  8
0
 10
23.6142
 20
5.57402
 11
23.6771
 21
5.70709
  0
LINE
  8
0
 10
23.6771
 20
5.70709
 11
23.7528
 21
5.83334
  0
LINE
  8
0
 10
23.7528
 20
5.83334
 11
23.8405
 21
5.95158
  0
LINE
  8
0
 10
23.8405
 20
5.95158
 11
23.9393
 21
6.06065
  0
LINE
  8
0
 10
23.9393
 20
6.06065
 11
24.0484
 21
6.15952
  0
LINE
  8
0
 10
24.0484
 20
6.15952
 11
24.1666
 21
6.24719
  0
LINE
  8
0
 10
24.1666
 20
6.24719
 11
24.2929
 21
6.32288
  0
LINE
  8
0
 10
24.2929
 20
6.32288
 11
24.426
 21
6.38582
  0
LINE
  8
0
 10
24.426
 20
6.38582
 11
24.5646
 21
6.43541
  0
LINE
  8
0
 10
24.5646
 20
6.43541
 11
24.7074
 21
6.47118
  0
LINE
  8
0
 10
24.7074
 20
6.47118
 11
24.853
 21
6.49277
  0
LINE
  8
0
 10
24.853
 20
6.49277
 11
25
 21
6.5
  0
LINE
  8
0
 10
25
 20
6.5
 11
25.147
 21
6.49277
  0
LINE
  8
0
 10
25.147
 20
6.49277
 11
25.2926
 21
6.47118
  0
LINE
  8
0
 10
25.2926
 20
6.47118
 11
25.4354
 21
6.43541
  0
LINE
  8
0
 10
25.4354
 20
6.43541
 11
25.574
 21
6.38582
  0
LINE
  8
0
 10
25.574
 20
6.38582
 11
25.7071
 21
6.32288
  0
LINE
  8
0
 10
25.7071
 20
6.32288
 11
25.8333
 21
6.24719
  0
LINE
  8
0
 10
25.8333
 20
6.24719
 11
25.9516
 21
6.15952
  0
LINE
  8
0
 10
25.9516
 20
6.15952
 11
26.0607
 21
6.06065
  0
LINE
  8
0
 10
26.0607
 20
6.06065
 11
26.1595
 21
5.95158
  0
LINE
  8
0
 10
26.1595
 20
5.95158
 11
26.2472
 21
5.83334
  0
LINE
  8
0
 10
26.2472
 20
5.83334
 11
26.3229
 21
5.70709
  0
LINE
  8
0
 10
26.3229
 20
5.70709
 11
26.3858
 21
5.57402
  0
LINE
  8
0
 10
26.3858
 20
5.57402
 11
26.4354
 21
5.43542
  0
LINE
  8
0
 10
26.4354
 20
5.43542
 11
26.4712
 21
5.29263
  0
LINE
  8
0
 10
26.4712
 20
5.29263
 11
26.4928
 21
5.14702
  0
LINE
  8
0
 10
26.4928
 20
5.14702
 11
26.5
 21
5
  0
LINE
  8
0
 10
26.5
 20
5
 11
26.4928
 21
4.85297
  0
LINE
  8
0
 10
26.4928
 20
4.85297
 11
26.4712
 21
4.70735
  0
LINE
  8
0
 10
26.4712
 20
4.70735
 11
26.4354
 21
4.56456
  0
LINE
  8
0
 10
26.4354
 20
4.56456
 11
26.3858
 21
4.42596
  0
LINE
  8
0
 10
26.3858
 20
4.42596
 11
26.3229
 21
4.29289
  0
LINE
  8
0
 10
26.3229
 20
4.29289
 11
26.2472
 21
4.16664
  0
LINE
  8
0
 10
26.2472
 20
4.16664
 11
26.1595
 21
4.0484
  0
LINE
  8
0
 10
26.1595
 20
4.0484
 11
26.0607
 21
3.93933
  0
LINE
  8
0
 10
26.0607
 20
3.93933
 11
25.9516
 21
3.84047
  0
LINE
  8
0
 10
25.9516
 20
3.84047
 11
25.8333
 21
3.75279
  0
LINE
  8
0
 10
25.8333
 20
3.75279
 11
25.7071
 21
3.67711
  0
LINE
  8
0
 10
25.7071
 20
3.67711
 11
25.574
 21
3.61417
  0
LINE
  8
0
 10
25.574
 20
3.61417
 11
25.4354
 21
3.56458
  0
LINE
  8
0
 10
25.4354
 20
3.56458
 11
25.2926
 21
3.52881
  0
LINE
  8
0
 10
25.2926
 20
3.52881
 11
25.147
 21
3.50722
  0
LINE
  8
0
 10
25.147
 20
3.50722
 11
25
 21
3.5
  0
LINE
  8
0
 10
25
 20
3.5
 11
24.853
 21
3.50722
  0
ENDSEC
  0
SECTION
  2
OBJECTS
  0
DICTIONARY
  0
ENDSEC
  0
EOF
